<?xml version="1.0" encoding="UTF-8"?>
<svg version="1.1" xmlns="http://www.w3.org/2000/svg" width="666" height="375">
<path d="M0 0 C4.5742041 0.49900408 7.91959236 2.42852914 11.4375 5.375 C11.4375 6.035 11.4375 6.695 11.4375 7.375 C12.118125 7.436875 12.79875 7.49875 13.5 7.5625 C16.86788035 8.49404137 18.85318589 9.96384349 21.609375 12.04296875 C24.41478617 14.08708244 27.40363258 15.6895181 30.4375 17.375 C32.11489862 18.35689187 33.78217377 19.35633771 35.4375 20.375 C36.530625 21.035 37.62375 21.695 38.75 22.375 C39.636875 23.035 40.52375 23.695 41.4375 24.375 C41.4375 25.365 41.4375 26.355 41.4375 27.375 C40.90382812 27.66632813 40.37015625 27.95765625 39.8203125 28.2578125 C35.75117362 30.49654289 31.72333138 32.7824155 27.75 35.1875 C23.24324741 37.91235195 18.68144297 40.53021046 14.1027832 43.13208008 C9.35512388 45.83641083 4.64233735 48.5969409 -0.0625 51.375 C-6.44227987 55.14102166 -12.85441254 58.84335422 -19.29296875 62.5078125 C-25.42088799 66.00738884 -31.50780108 69.57765457 -37.58984375 73.15625 C-42.31461378 75.92908801 -47.04828376 78.65813906 -51.875 81.25 C-57.64305276 84.36674321 -63.23764246 87.74740987 -68.84765625 91.13671875 C-76.23180479 95.59618775 -83.69099979 99.91538987 -91.24609375 104.078125 C-93.89291776 105.55998937 -96.50877062 107.08976984 -99.125 108.625 C-104.08961055 111.52581491 -109.06597163 114.40457332 -114.0625 117.25 C-114.74513916 117.64348633 -115.42777832 118.03697266 -116.13110352 118.44238281 C-119.25485084 120.21272649 -122.05692624 121.61571499 -125.5625 122.375 C-125.76563659 115.36459973 -125.90555897 108.35495987 -126.00195312 101.34228516 C-126.04214151 98.95788209 -126.09670392 96.57367565 -126.16601562 94.18994141 C-126.26326766 90.75894688 -126.30847374 87.3305605 -126.34375 83.8984375 C-126.38504028 82.83571625 -126.42633057 81.772995 -126.46887207 80.67807007 C-126.47325331 73.42310479 -126.47325331 73.42310479 -123.81616211 70.36529541 C-120.28699952 67.66181877 -116.71504968 65.93220613 -112.5625 64.375 C-110.58442505 63.2021591 -108.65568954 61.96215301 -106.71875 60.72265625 C-103.87894532 58.94777833 -100.9548728 57.35237486 -98.01953125 55.7421875 C-95.322679 54.24155429 -92.6612432 52.68789519 -90 51.125 C-84.58429227 47.9526477 -79.12500953 44.86517556 -73.65087891 41.79541016 C-69.04914599 39.21389644 -64.45674761 36.61682857 -59.875 34 C-58.77800781 33.37351563 -57.68101563 32.74703125 -56.55078125 32.1015625 C-54.72334071 31.04570796 -52.90250993 29.97817053 -51.09375 28.890625 C-48.0077392 27.04282841 -44.8792339 25.27304878 -41.75 23.5 C-37.23300278 20.93233881 -32.77912783 18.29549285 -28.39453125 15.5078125 C-25.71972344 13.85388017 -22.96700996 12.353266 -20.2109375 10.83984375 C-16.8133147 8.9606276 -13.43645279 7.04631431 -10.0625 5.125 C-9.43843262 4.77139404 -8.81436523 4.41778809 -8.17138672 4.0534668 C-1.43038573 0.20932474 -1.43038573 0.20932474 0 0 Z " fill="#3181DB" transform="translate(139.5625,51.625)"/>
<path d="M0 0 C0 12.54 0 25.08 0 38 C-6.435 39.98 -6.435 39.98 -13 42 C-24.09312553 47.54656276 -30.45511524 54.45319394 -34.73828125 65.98828125 C-37.93317219 76.48578004 -36.05712309 87.03924266 -32 97 C-30.78988596 99.24433942 -29.51922675 101.33187042 -28.05078125 103.4140625 C-27 105 -27 105 -26 108 C-25.01 108.33 -24.02 108.66 -23 109 C-23 109.66 -23 110.32 -23 111 C-22.43667969 111.27972656 -21.87335938 111.55945313 -21.29296875 111.84765625 C-19.7684086 112.61383213 -18.25004303 113.39246453 -16.73828125 114.18359375 C-15.53751953 114.80427734 -15.53751953 114.80427734 -14.3125 115.4375 C-13.52488281 115.84871094 -12.73726562 116.25992188 -11.92578125 116.68359375 C-8.07041916 118.41824932 -4.01068101 119.66310633 0 121 C0 132.88 0 144.76 0 157 C-7.02473876 155.59505225 -12.6501744 152.12225896 -18.8125 148.625 C-20.2407706 147.81750521 -21.66915508 147.01021182 -23.09765625 146.203125 C-23.77586426 145.81962891 -24.45407227 145.43613281 -25.15283203 145.04101562 C-27.34465544 143.80576119 -29.54593046 142.58824929 -31.75 141.375 C-35.15684493 139.49022458 -38.51724072 137.53335871 -41.875 135.5625 C-46.56871937 132.81408637 -51.30125933 130.15820264 -56.08740234 127.57446289 C-59.0086735 125.99531137 -61.92497366 124.40733837 -64.83984375 122.81640625 C-66.29765259 122.02085327 -66.29765259 122.02085327 -67.78491211 121.20922852 C-68.51589111 120.81018311 -69.24687012 120.4111377 -70 120 C-70.20870479 109.80370104 -70.36853048 99.6079115 -70.46630955 89.4099102 C-70.51324472 84.6741978 -70.57687831 79.9399484 -70.67895508 75.20507812 C-70.77688639 70.63378712 -70.83058528 66.06390114 -70.85389519 61.491642 C-70.87050109 59.74915568 -70.9029322 58.00674476 -70.95157051 56.26485825 C-71.31781913 42.60259361 -71.31781913 42.60259361 -68.05995178 38.64071655 C-65.7482352 37.07711054 -63.58932836 36.02032086 -61 35 C-59.81454959 34.2925844 -58.64218802 33.56246627 -57.48828125 32.8046875 C-56.44027344 32.16789062 -55.39226562 31.53109375 -54.3125 30.875 C-50.1418001 28.33897002 -46.060228 25.70870363 -42 23 C-40.34558987 22.05925698 -38.69078665 21.1191697 -37.03125 20.1875 C-34.57965096 18.75425748 -32.20038532 17.22452963 -29.8125 15.6875 C-24.88737071 12.52811075 -19.87379838 9.55937767 -14.80078125 6.64453125 C-11.69591334 4.82144981 -8.69284478 2.87604107 -5.71875 0.84765625 C-4 0 -4 0 0 0 Z " fill="#3080DB" transform="translate(136,181)"/>
<path d="M0 0 C4.89409584 0.97881917 6.79170616 1.96453397 10.75 4.75 C14.22836742 7.14084865 17.65089261 9.4499146 21.375 11.4375 C26.69759035 14.29376186 31.70758609 17.620539 36.765625 20.9140625 C41.34380887 23.86665935 46.0290849 26.59610044 50.75 29.3125 C55.97373137 32.35269878 61.0170604 35.58282486 66 39 C67.485 39.99 67.485 39.99 69 41 C69.28654687 43.57318919 69.37852887 45.90497099 69.34057617 48.47900391 C69.34123329 49.6352401 69.34123329 49.6352401 69.34190369 50.81483459 C69.3398095 53.36899937 69.31644941 55.92251205 69.29296875 58.4765625 C69.28737502 60.24489992 69.28310387 62.01324197 69.28010559 63.78158569 C69.26863921 68.44076322 69.23915675 73.09966114 69.20599365 77.75872803 C69.1753313 82.51098854 69.16160847 87.26329413 69.14648438 92.015625 C69.11428866 101.34387299 69.06307078 110.67191327 69 120 C68.32009003 120.33782501 67.64018005 120.67565002 66.93966675 121.02371216 C66.04418121 121.46979828 65.14869568 121.9158844 64.22607422 122.37548828 C63.33991425 122.81643829 62.45375427 123.25738831 61.54074097 123.71170044 C58.33696507 125.33619626 55.23532507 127.07742604 52.125 128.875 C51.23204224 129.38969849 51.23204224 129.38969849 50.32104492 129.91479492 C48.54532595 130.93973036 46.77215584 131.96891824 45 133 C44.04480469 133.55558594 43.08960938 134.11117187 42.10546875 134.68359375 C40.20260331 135.79337681 38.30028111 136.90409174 36.3984375 138.015625 C28.94581269 142.36727259 21.48455865 146.7034642 14 151 C13.07018311 151.53415527 13.07018311 151.53415527 12.12158203 152.07910156 C10.5856455 152.95665205 9.04314277 153.82268426 7.5 154.6875 C6.6853125 155.14511719 5.870625 155.60273438 5.03125 156.07421875 C3 157 3 157 0 157 C0 145.12 0 133.24 0 121 C3.96 119.68 7.92 118.36 12 117 C15.23988165 115.10411541 15.23988165 115.10411541 18.37890625 113.05078125 C20 112 20 112 23 111 C23.495 109.515 23.495 109.515 24 108 C24.66 108 25.32 108 26 108 C26.268125 107.2575 26.53625 106.515 26.8125 105.75 C28 103 28 103 29.40625 101.34375 C31.65575385 98.0356561 32.58792526 94.57027477 33.6875 90.75 C33.91244141 90.02425781 34.13738281 89.29851562 34.36914062 88.55078125 C36.60385543 80.92965659 36.4940398 74.59104456 34.25 66.875 C33.92515625 65.71742188 33.6003125 64.55984375 33.265625 63.3671875 C30.24819067 55.3393221 24.60533511 49.28426809 18 44 C12.06 42.02 6.12 40.04 0 38 C0 25.46 0 12.92 0 0 Z " fill="#888381" transform="translate(144,181)"/>
<path d="M0 0 C0.99 0.33 1.98 0.66 3 1 C3 43.24 3 85.48 3 129 C-4.82960644 127.88148479 -4.82960644 127.88148479 -8.4375 125.1875 C-11.11039732 123.28916087 -13.65623939 121.5785028 -16.625 120.1875 C-21.52180137 117.85804996 -26.09691745 114.99333435 -30.72119141 112.17260742 C-33.76448909 110.32042198 -36.79968956 108.5634504 -40 107 C-40.30171998 96.18670952 -40.53244175 85.37442549 -40.67355824 74.5577774 C-40.74130477 69.53439805 -40.83310557 64.51390514 -40.98071289 59.4921875 C-41.12238139 54.64194121 -41.19977096 49.79446243 -41.23340416 44.94230652 C-41.25735587 43.09519355 -41.30413814 41.24822607 -41.37449074 39.40229797 C-41.80435688 27.65181767 -41.80435688 27.65181767 -40 23 C-36.07506711 19.00234116 -32.17167703 17.17119579 -27 15 C-25.25230574 13.96825953 -23.51863788 12.91159834 -21.8125 11.8125 C-17.74929605 9.37853529 -13.5897335 7.23567283 -9.328125 5.171875 C-7.1652917 4.08320052 -5.12518459 2.89034433 -3.0625 1.625 C-2.051875 1.08875 -1.04125 0.5525 0 0 Z " fill="#888381" transform="translate(54,162)"/>
<path d="M0 0 C3.19140625 1.56640625 3.19140625 1.56640625 6.5625 3.5625 C7.46343384 4.09170044 7.46343384 4.09170044 8.38256836 4.6315918 C13.6844419 7.76253215 18.93114162 10.98745627 24.16015625 14.23828125 C28.69536555 17.05173296 33.22127914 19.61988871 38 22 C41.43756479 23.93144106 44.82910711 25.93893295 48.22167969 27.94824219 C49.46836582 28.68557385 50.71654361 29.42038649 51.96582031 30.15332031 C54.0008725 31.3474901 56.0320483 32.54802774 58.0625 33.75 C58.70566162 34.12656738 59.34882324 34.50313477 60.01147461 34.89111328 C65.95997645 38.43284859 65.95997645 38.43284859 68 41 C68.32279968 43.10710144 68.32279968 43.10710144 68.2487793 45.56323242 C68.22853195 46.48396042 68.20828461 47.40468842 68.18742371 48.35331726 C68.15006607 49.34402725 68.11270844 50.33473724 68.07421875 51.35546875 C68.03455742 52.88062859 68.03455742 52.88062859 67.99409485 54.43659973 C67.90625062 57.68749165 67.79712817 60.93727678 67.6875 64.1875 C67.62424978 66.38993416 67.56238345 68.59240854 67.50195312 70.79492188 C67.35069695 76.19718396 67.18196149 81.59868972 67 87 C66.01 87.495 66.01 87.495 65 88 C59.34166618 85.54449664 54.21513222 82.32970668 48.9909668 79.06469727 C45.55032716 76.92314026 42.07402655 74.90962587 38.5 73 C33.2177348 70.17406512 28.15382564 67.04558642 23.0703125 63.87890625 C20.49424996 62.30246085 17.90442557 60.81319922 15.25 59.375 C12.25623951 57.74748294 9.43789032 55.98580133 6.625 54.0625 C2.5411969 51.28579651 -1.69287811 48.95575497 -6.046875 46.6328125 C-9.26544447 44.85323309 -12.37887724 42.94515471 -15.5 41 C-20.32344912 37.99886932 -25.20392095 35.20027905 -30.2109375 32.51953125 C-35.20789969 29.79709667 -40.09915897 26.8908975 -45 24 C-43.69086077 20.07258232 -42.22344515 19.65171791 -38.6875 17.5625 C-38.12933594 17.22976074 -37.57117188 16.89702148 -36.99609375 16.55419922 C-35.72766961 15.79836208 -34.45717243 15.04599726 -33.18505859 14.29638672 C-30.73333875 12.84179092 -28.29795947 11.36184253 -25.86328125 9.87890625 C-24.07568858 8.79399439 -22.28792849 7.70935834 -20.5 6.625 C-19.63979248 6.10107666 -18.77958496 5.57715332 -17.89331055 5.03735352 C-17.07258057 4.54291748 -16.25185059 4.04848145 -15.40625 3.5390625 C-14.67728516 3.09771973 -13.94832031 2.65637695 -13.19726562 2.20166016 C-8.37549724 -0.4353114 -5.41716631 -1.48237716 0 0 Z " fill="#888381" transform="translate(196,84)"/>
<path d="M0 0 C2.97 0.495 2.97 0.495 6 1 C6 1.66 6 2.32 6 3 C6.763125 3.20625 7.52625 3.4125 8.3125 3.625 C16.11824283 6.53561597 23.23883104 11.06298347 30.3203125 15.41015625 C32.74830789 16.85067247 35.19826797 18.23118274 37.66748047 19.59936523 C38.47861298 20.04908188 39.28974548 20.49879852 40.12545776 20.96214294 C40.7440567 21.30463577 41.36265564 21.6471286 42 22 C42.09258899 33.03073929 42.16370855 44.06138648 42.20724869 55.09243488 C42.22814347 60.21435054 42.25649563 65.33600079 42.30175781 70.45776367 C42.3451481 75.39850163 42.36912285 80.33898394 42.37950897 85.27989769 C42.38691261 87.16702488 42.40136988 89.05413773 42.42292023 90.94115639 C42.45186392 93.57997747 42.45595985 96.21773576 42.45410156 98.85668945 C42.47567322 100.03272987 42.47567322 100.03272987 42.49768066 101.23252869 C42.45714729 106.5350509 42.45714729 106.5350509 40.09916687 108.93327332 C39.4064418 109.28529312 38.71371674 109.63731293 38 110 C36.98981812 110.59941406 36.98981812 110.59941406 35.95922852 111.2109375 C35.25209717 111.59507812 34.54496582 111.97921875 33.81640625 112.375 C33.0289502 112.80554688 32.24149414 113.23609375 31.43017578 113.6796875 C30.22723877 114.33324219 30.22723877 114.33324219 29 115 C27.48768117 115.83224382 25.97595246 116.66556098 24.46484375 117.5 C22.19816473 118.75166054 19.93151486 120.00328798 17.66210938 121.25 C13.23130458 123.70092054 8.94010875 126.26833284 4.72875977 129.08203125 C3 130 3 130 0 130 C0 87.1 0 44.2 0 0 Z " fill="#3080DB" transform="translate(222,160)"/>
<path d="M0 0 C10.21392327 -0.06953038 20.42779017 -0.12282675 30.64190197 -0.15543652 C35.38480683 -0.1710881 40.1275497 -0.19231715 44.87036133 -0.22631836 C49.44800215 -0.25892985 54.02548721 -0.27685684 58.60323524 -0.28463173 C60.34913904 -0.29017202 62.09503438 -0.30099089 63.84087181 -0.31719017 C66.28757482 -0.33898842 68.73363533 -0.34196595 71.18041992 -0.34057617 C71.90115189 -0.351362 72.62188385 -0.36214783 73.36445618 -0.3732605 C77.76285267 -0.34625159 80.48604761 0.33458503 84 3 C86.98764054 6.50275098 87.44772507 9.61620295 87.296875 14.171875 C86.85628424 18.36908172 86.04392781 22.48440084 85.21069336 26.61767578 C83.95559257 32.90711716 83.20013552 39.19871574 82.52734375 45.57421875 C82 49 82 49 80 54 C74.06 54 68.12 54 62 54 C61.11249938 50.44999752 60.93412068 49.12960009 61.48828125 45.734375 C61.68260742 44.52201172 61.68260742 44.52201172 61.88085938 43.28515625 C62.02330078 42.44855469 62.16574219 41.61195313 62.3125 40.75 C62.44333984 39.92886719 62.57417969 39.10773438 62.70898438 38.26171875 C63.34807871 34.3654045 64.08221875 30.55083282 65.09765625 26.734375 C65.8879306 23.46380237 66.21768711 20.83673611 66.125 17.5 C66.08375 16.015 66.0425 14.53 66 13 C59.07 12.505 59.07 12.505 52 12 C51.89042969 13.22332031 51.78085937 14.44664062 51.66796875 15.70703125 C50.83412964 24.69326499 49.86671531 33.64018626 48.5 42.5625 C48.38164795 43.36469971 48.2632959 44.16689941 48.14135742 44.9934082 C47.56583249 48.60614405 47.0570581 50.91441285 45 54 C43.15234375 54.38818359 43.15234375 54.38818359 40.9375 54.3984375 C40.14085937 54.40230469 39.34421875 54.40617187 38.5234375 54.41015625 C37.69070313 54.39855469 36.85796875 54.38695312 36 54.375 C34.75089844 54.39240234 34.75089844 54.39240234 33.4765625 54.41015625 C32.67992187 54.40628906 31.88328125 54.40242188 31.0625 54.3984375 C30.33160156 54.39505371 29.60070312 54.39166992 28.84765625 54.38818359 C27 54 27 54 25 51 C25.3840332 48.36645508 25.3840332 48.36645508 26.23828125 45.20703125 C28.03234122 38.07927947 29.16548752 30.96088842 30.1875 23.6875 C30.45336914 21.84381836 30.45336914 21.84381836 30.72460938 19.96289062 C31.15463941 16.97592525 31.57969848 13.988347 32 11 C30.989375 11.165 29.97875 11.33 28.9375 11.5 C25.23737067 11.96985769 21.72392609 12.07599849 18 12 C17.87882812 13.0621875 17.75765625 14.124375 17.6328125 15.21875 C16.12347897 28.07699361 16.12347897 28.07699361 15 32.1875 C13.80571077 36.74072769 13.1877496 41.28775971 12.5625 45.94921875 C12.02532924 48.86262403 11.20159103 51.30142682 10 54 C7.02077407 54.02683987 4.04178705 54.04676037 1.0625 54.0625 C0.21236328 54.07087891 -0.63777344 54.07925781 -1.51367188 54.08789062 C-2.32255859 54.09111328 -3.13144531 54.09433594 -3.96484375 54.09765625 C-4.7137085 54.10289307 -5.46257324 54.10812988 -6.23413086 54.11352539 C-8 54 -8 54 -9 53 C-8.44814916 46.66625742 -7.49988996 40.40153699 -6.5 34.125 C-6.30470703 32.86429688 -6.30470703 32.86429688 -6.10546875 31.578125 C-5.97785156 30.77117187 -5.85023438 29.96421875 -5.71875 29.1328125 C-5.60466797 28.40980957 -5.49058594 27.68680664 -5.37304688 26.94189453 C-5 25 -5 25 -4 22 C-3.48206798 18.29178082 -3.0418418 14.57709609 -2.59765625 10.859375 C-2.01637784 7.10576016 -1.07455288 3.63761902 0 0 Z " fill="#1B669F" transform="translate(440,181)"/>
<path d="M0 0 C0.86147141 -0.00960754 1.72294281 -0.01921509 2.61051941 -0.02911377 C4.01821342 -0.03548859 4.01821342 -0.03548859 5.4543457 -0.04199219 C6.89581718 -0.0505423 6.89581718 -0.0505423 8.3664093 -0.05926514 C10.40669651 -0.06873374 12.44699913 -0.07525646 14.48730469 -0.07910156 C17.59964059 -0.08877246 20.71130658 -0.11976393 23.82348633 -0.15136719 C25.80460219 -0.15790046 27.78572279 -0.16314966 29.7668457 -0.16699219 C31.15935799 -0.18551239 31.15935799 -0.18551239 32.58000183 -0.20440674 C37.77713128 -0.18662684 41.46704748 0.20172962 45.94262695 3.16113281 C49.59020726 10.45629343 47.14303849 23.22196825 44.7277832 30.60253906 C43.87393123 33.384992 43.43375153 36.09682823 43.00512695 38.97363281 C42.21196687 43.53105265 41.05134862 46.60830805 37.94262695 50.16113281 C29.36723549 56.18432443 16.97186888 54.29465822 6.94262695 54.16113281 C6.82201904 55.09010376 6.82201904 55.09010376 6.69897461 56.0378418 C6.32601086 58.89199874 5.94685561 61.74530179 5.56762695 64.59863281 C5.44129883 65.57251953 5.3149707 66.54640625 5.18481445 67.54980469 C2.96564216 84.13811761 2.96564216 84.13811761 0.94262695 86.16113281 C-1.87993796 86.26120289 -4.67260495 86.29988879 -7.49487305 86.28613281 C-8.28442383 86.29 -9.07397461 86.29386719 -9.88745117 86.29785156 C-15.80411171 86.28776348 -15.80411171 86.28776348 -18.05737305 85.16113281 C-18.37724964 79.80616162 -18.1694332 75.03153196 -16.7019043 69.85253906 C-14.68352769 62.10917159 -13.64217567 54.26208392 -12.55737305 46.34863281 C-11.22253529 36.6823804 -9.74956942 27.10902193 -7.7355957 17.55834961 C-6.80971484 12.92061305 -6.13655827 8.2584157 -5.48706055 3.57519531 C-4.79341245 -0.32184582 -3.65961043 0.03282097 0 0 Z M12.94262695 12.16113281 C12.27332442 16.59825007 11.60706914 21.0357875 10.94262695 25.47363281 C10.7518457 26.73626953 10.56106445 27.99890625 10.36450195 29.29980469 C10.1840332 30.50830078 10.00356445 31.71679688 9.81762695 32.96191406 C9.65004883 34.07735596 9.4824707 35.19279785 9.30981445 36.34204102 C8.87804731 39.18312735 8.87804731 39.18312735 8.94262695 42.16113281 C10.87890464 42.26920413 12.81690451 42.34675532 14.75512695 42.41113281 C15.83407227 42.45753906 16.91301758 42.50394531 18.0246582 42.55175781 C20.93809449 42.41820899 20.93809449 42.41820899 22.72387695 40.72753906 C24.54399833 36.89478346 25.04417923 33.02711245 25.63012695 28.84863281 C25.75967773 28.01912109 25.88922852 27.18960938 26.02270508 26.33496094 C26.74944336 21.4631228 26.94262695 17.17866755 26.94262695 12.16113281 C22.32262695 12.16113281 17.70262695 12.16113281 12.94262695 12.16113281 Z " fill="#18639E" transform="translate(299.057373046875,180.8388671875)"/>
<path d="M0 0 C1.35106087 0.0001133 1.35106087 0.0001133 2.72941589 0.00022888 C3.69825211 0.00539017 4.66708832 0.01055145 5.6652832 0.01586914 C7.15714897 0.01799156 7.15714897 0.01799156 8.67915344 0.02015686 C11.85815428 0.02575779 15.03708488 0.03831043 18.21606445 0.05102539 C20.37036031 0.05604027 22.52465727 0.0606032 24.67895508 0.06469727 C29.9621822 0.07572751 35.24536831 0.09246653 40.52856445 0.11352539 C39.43693452 11.17445962 37.99172823 22.06735209 35.86914062 32.97851562 C35.45609603 35.10228036 35.05314301 37.22779075 34.65161133 39.35375977 C32.6967692 49.60891115 32.6967692 49.60891115 31.52856445 53.11352539 C28.54968319 53.30734649 25.57066199 53.49387641 22.59106445 53.67602539 C21.31585937 53.76013672 21.31585937 53.76013672 20.01489258 53.84594727 C18.8015625 53.91845703 18.8015625 53.91845703 17.5637207 53.99243164 C16.81485596 54.03956299 16.06599121 54.08669434 15.29443359 54.13525391 C13.52856445 54.11352539 13.52856445 54.11352539 12.52856445 53.11352539 C12.39288126 49.45007928 12.36395019 46.60736818 13.52856445 43.11352539 C12.86856445 43.11352539 12.20856445 43.11352539 11.52856445 43.11352539 C11.4202832 43.7077832 11.31200195 44.30204102 11.20043945 44.91430664 C9.95491838 48.99121575 7.19702116 51.11476493 3.52856445 53.11352539 C-2.87459633 54.75958215 -8.67765408 55.0323116 -14.65893555 51.98852539 C-17.04375587 50.38990957 -18.38812925 49.23348645 -20.03393555 46.86352539 C-21.27498243 39.06265928 -20.10243735 31.66270587 -18.65893555 23.98852539 C-18.49329102 23.03848633 -18.32764648 22.08844727 -18.15698242 21.10961914 C-15.50502854 6.6789871 -15.50502854 6.6789871 -10.47143555 3.11352539 C-9.48143555 3.11352539 -8.49143555 3.11352539 -7.47143555 3.11352539 C-7.47143555 2.45352539 -7.47143555 1.79352539 -7.47143555 1.11352539 C-4.64131428 0.17015163 -2.92843637 -0.0082029 0 0 Z M6.52856445 12.11352539 C4.38931524 16.88380524 2.67745967 21.5607994 1.27856445 26.61352539 C0.9227832 27.86133789 0.56700195 29.10915039 0.20043945 30.39477539 C-0.50659023 34.30810248 -0.2507673 37.23684949 0.52856445 41.11352539 C3.38634479 41.79845913 3.38634479 41.79845913 6.52856445 42.11352539 C7.51856445 41.45352539 8.50856445 40.79352539 9.52856445 40.11352539 C9.52856445 39.45352539 9.52856445 38.79352539 9.52856445 38.11352539 C10.98262695 37.64946289 10.98262695 37.64946289 12.46606445 37.17602539 C15.36922237 36.41829197 15.36922237 36.41829197 16.52856445 35.11352539 C16.82452905 33.66621578 17.06612169 32.20767059 17.2824707 30.74633789 C17.41459961 29.86075195 17.54672852 28.97516602 17.68286133 28.06274414 C17.81756836 27.13075195 17.95227539 26.19875977 18.09106445 25.23852539 C18.22963867 24.31426758 18.36821289 23.39000977 18.51098633 22.43774414 C19.27615098 17.29682182 19.27615098 17.29682182 19.52856445 12.11352539 C15.23856445 12.11352539 10.94856445 12.11352539 6.52856445 12.11352539 Z " fill="#17639E" transform="translate(549.471435546875,180.886474609375)"/>
<path d="M0 0 C0.85501602 -0.02251831 1.71003204 -0.04503662 2.59095764 -0.0682373 C6.5302777 -0.1392241 10.46940219 -0.19683896 14.40917969 -0.23535156 C16.48200679 -0.26188686 18.55470371 -0.30273242 20.62695312 -0.35839844 C23.61960084 -0.43786409 26.60972068 -0.47072232 29.60327148 -0.49414062 C30.98029991 -0.54362854 30.98029991 -0.54362854 32.38514709 -0.59411621 C38.73176615 -0.57458625 41.90987343 1.05209871 46.49131775 5.42565918 C49.48798052 9.06063859 49.13556976 12.71088274 48.97436523 17.22460938 C48.47936523 18.70960938 48.47936523 18.70960938 47.97436523 20.22460938 C47.65536789 22.40829122 47.36872966 24.5967513 47.09936523 26.78710938 C46.31726986 32.91084737 45.41124322 39.00755249 44.41186523 45.09960938 C44.28505371 45.89052979 44.15824219 46.6814502 44.02758789 47.49633789 C43.09393482 53.10503979 43.09393482 53.10503979 41.97436523 54.22460938 C38.83693756 54.50147824 35.68507246 54.45634566 32.53686523 54.47460938 C31.65192383 54.49523437 30.76698242 54.51585937 29.85522461 54.53710938 C28.58582031 54.54484375 28.58582031 54.54484375 27.29077148 54.55273438 C26.51161377 54.56208008 25.73245605 54.57142578 24.9296875 54.58105469 C24.28443115 54.46342773 23.6391748 54.34580078 22.97436523 54.22460938 C20.97436523 51.22460938 20.97436523 51.22460938 21.32983398 49.19335938 C21.6044043 48.37867188 21.87897461 47.56398437 22.16186523 46.72460938 C23.7550779 41.39019197 24.78630669 36.08751391 25.66186523 30.59960938 C25.85848755 29.41915039 25.85848755 29.41915039 26.05908203 28.21484375 C26.89752107 22.82816777 27.08860573 17.67551322 26.97436523 12.22460938 C22.68436523 12.22460938 18.39436523 12.22460938 13.97436523 12.22460938 C13.87124023 14.28710938 13.76811523 16.34960938 13.66186523 18.47460938 C13.25215959 24.2982825 12.28609542 29.58115182 10.73217773 35.19335938 C9.63424996 39.58507046 9.07272874 44.02318186 8.50170898 48.50976562 C7.97436523 51.22460938 7.97436523 51.22460938 5.97436523 54.22460938 C3.06106445 54.47330578 0.38016229 54.55095215 -2.52563477 54.47460938 C-3.31067383 54.46945313 -4.09571289 54.46429688 -4.90454102 54.45898438 C-10.71638653 54.37923349 -10.71638653 54.37923349 -13.02563477 53.22460938 C-12.37200655 47.00580375 -11.56485431 40.83798216 -10.58813477 34.66210938 C-10.40541016 33.46424805 -10.40541016 33.46424805 -10.21899414 32.2421875 C-9.62972122 28.49587725 -8.96302367 24.82996798 -7.99438477 21.16210938 C-6.92487192 17.06937215 -6.4132846 12.98720306 -5.96313477 8.78710938 C-5.02319138 0.1256476 -5.02319138 0.1256476 0 0 Z " fill="#1D669F" transform="translate(600.025634765625,180.775390625)"/>
<path d="M0 0 C0.73381897 -0.00807175 1.46763794 -0.01614349 2.22369385 -0.02445984 C3.77703504 -0.03828074 5.33040634 -0.04901181 6.88378906 -0.05688477 C8.46460939 -0.0683893 10.04539134 -0.08881719 11.62597656 -0.1184082 C13.91758452 -0.16129798 16.20803938 -0.1772834 18.5 -0.1875 C19.5472525 -0.21376213 19.5472525 -0.21376213 20.61566162 -0.24055481 C26.08283763 -0.21669986 29.11870175 1.2246006 33.515625 4.23828125 C37.2293432 11.66571766 34.42390271 24.13397696 32.234375 31.625 C31.58383046 33.9902951 31.26447256 36.11428684 31.078125 38.55078125 C30.2937956 43.69249623 28.24863592 46.97783222 25.078125 51.11328125 C18.95838556 55.51949364 6.78167007 53.94680238 -0.484375 54.23828125 C-1.77988281 54.29371094 -3.07539063 54.34914062 -4.41015625 54.40625 C-10.26853383 54.54814842 -14.56837009 54.60925604 -19.484375 51.23828125 C-19.484375 50.57828125 -19.484375 49.91828125 -19.484375 49.23828125 C-20.474375 48.90828125 -21.464375 48.57828125 -22.484375 48.23828125 C-25.6321628 41.63560441 -24.08685121 35.01610154 -22.484375 28.23828125 C-22.18528385 26.81556826 -21.88857 25.39235421 -21.59375 23.96875 C-21.26718013 22.45409095 -20.93905409 20.93976659 -20.609375 19.42578125 C-20.46032715 18.70841797 -20.3112793 17.99105469 -20.15771484 17.25195312 C-18.66232497 10.69606617 -15.59916177 5.69309553 -10.484375 1.23828125 C-6.94166865 0.05737913 -3.68999821 0.03859423 0 0 Z M2.515625 12.23828125 C-2.1259199 26.01596248 -2.1259199 26.01596248 -1.484375 40.23828125 C0.32755506 42.48152961 0.32755506 42.48152961 2.8984375 42.43359375 C3.80335938 42.41039062 4.70828125 42.3871875 5.640625 42.36328125 C6.55070312 42.34523438 7.46078125 42.3271875 8.3984375 42.30859375 C9.44644531 42.27378906 9.44644531 42.27378906 10.515625 42.23828125 C15.43648884 27.35272566 15.43648884 27.35272566 14.515625 12.23828125 C10.555625 12.23828125 6.595625 12.23828125 2.515625 12.23828125 Z " fill="#19649E" transform="translate(370.484375,180.76171875)"/>
<path d="M0 0 C6.27 0 12.54 0 19 0 C18.13599992 14.68800144 15.60365233 28.99339188 12.81640625 43.42578125 C11.52316258 50.42083528 10.5399153 57.47285314 9.53344727 64.51391602 C6.59635042 84.40364958 6.59635042 84.40364958 4 87 C2.66956375 87.0983721 1.33406656 87.13078592 0 87.1328125 C-0.804375 87.13410156 -1.60875 87.13539063 -2.4375 87.13671875 C-3.283125 87.13285156 -4.12875 87.12898438 -5 87.125 C-5.845625 87.12886719 -6.69125 87.13273437 -7.5625 87.13671875 C-8.366875 87.13542969 -9.17125 87.13414062 -10 87.1328125 C-10.7425 87.13168457 -11.485 87.13055664 -12.25 87.12939453 C-14 87 -14 87 -15 86 C-14.98798413 83.8942181 -14.88779038 81.78880331 -14.75 79.6875 C-14.68296875 78.53636719 -14.6159375 77.38523437 -14.546875 76.19921875 C-14.21017463 72.86642082 -13.46469065 69.74579382 -12.61328125 66.5078125 C-10.69708346 59.14700574 -9.57401105 51.69707066 -8.4375 44.1875 C-8.12458205 42.12844657 -7.80989364 40.06973989 -7.48976135 38.01179504 C-7.20156424 36.15852892 -6.91978199 34.30426848 -6.63842773 32.44995117 C-5.97797708 28.88099203 -5.01658538 25.48200504 -4 22 C-3.622793 19.5062426 -3.28988215 17.00541004 -3 14.5 C-2.40118084 9.32449152 -1.45711888 5.09991609 0 0 Z " fill="#14619D" transform="translate(420,148)"/>
<path d="M0 0 C0.33 0 0.66 0 1 0 C1.33 35.97 1.66 71.94 2 109 C4.31 109 6.62 109 9 109 C9.495 108.01 9.495 108.01 10 107 C12.375 105.8125 12.375 105.8125 15 105 C15.99 105.33 16.98 105.66 18 106 C17.34 106 16.68 106 16 106 C15.67 106.99 15.34 107.98 15 109 C12.3828125 110.82421875 12.3828125 110.82421875 9.125 112.6875 C7.52011719 113.62142578 7.52011719 113.62142578 5.8828125 114.57421875 C3 116 3 116 0 116 C0 77.72 0 39.44 0 0 Z " fill="#3E76B6" transform="translate(222,174)"/>
<path d="M0 0 C2.0625 0.4375 2.0625 0.4375 4 1 C3.01 1 2.02 1 1 1 C1.1073993 11.00508136 1.22001175 21.010089 1.33933926 31.01503563 C1.3945786 35.66038996 1.44800022 40.30575057 1.49731445 44.95117188 C1.54494309 49.43158181 1.59728535 53.91191382 1.65294075 58.39223099 C1.67337111 60.10428561 1.69208306 61.81636161 1.70907402 63.52845383 C1.73310298 65.920578 1.7631595 68.3125543 1.79467773 70.70458984 C1.8004332 71.41740616 1.80618866 72.13022247 1.81211853 72.86463928 C1.82056111 76.55649938 1.82056111 76.55649938 3 80 C1.68 80 0.36 80 -1 80 C-1.02312376 69.71695462 -1.04091525 59.43391538 -1.05181217 49.15084934 C-1.05704093 44.3765172 -1.06413844 39.60220279 -1.07543945 34.82788086 C-1.0862686 30.22433738 -1.09227689 25.62081101 -1.09487724 21.01725578 C-1.09673144 19.25690377 -1.10035196 17.49655274 -1.10573006 15.73620796 C-1.11294086 13.27927723 -1.11399093 10.82241805 -1.11352539 8.36547852 C-1.11712067 7.63036545 -1.12071594 6.89525238 -1.12442017 6.13786316 C-1.11405216 1.11405216 -1.11405216 1.11405216 0 0 Z " fill="#82AADA" transform="translate(67,221)"/>
<path d="M0 0 C0 12.54 0 25.08 0 38 C-6.435 39.98 -6.435 39.98 -13 42 C-14.485 42.495 -14.485 42.495 -16 43 C-14.63016497 39.83884224 -14.0109362 39.0072908 -11 37 C-8.03 37 -5.06 37 -2 37 C-2.33 26.11 -2.66 15.22 -3 4 C-4.65 4.66 -6.3 5.32 -8 6 C-10.3125 5.625 -10.3125 5.625 -12 5 C-10.75747321 4.15556432 -9.5056114 3.3248542 -8.25 2.5 C-7.55390625 2.0359375 -6.8578125 1.571875 -6.140625 1.09375 C-4 0 -4 0 0 0 Z " fill="#7AA9D6" transform="translate(136,181)"/>
<path d="M0 0 C1.17104107 3.47217772 0.80954724 5.9454223 0.0625 9.5 C-0.63158026 12.84629424 -1 15.54760179 -1 19 C2.34252724 19.07427838 4.8035914 19.06546953 8 18 C8 17.34 8 16.68 8 16 C11.75 14.875 11.75 14.875 14 16 C14 20.62 14 25.24 14 30 C15.65 30.33 17.3 30.66 19 31 C19 31.33 19 31.66 19 32 C16.66705225 32.04241723 14.33297433 32.04092937 12 32 C11 31 11 31 10.875 27.625 C11 24 11 24 12 21 C11.34 21 10.68 21 10 21 C9.896875 21.61875 9.79375 22.2375 9.6875 22.875 C9 25 9 25 6 27 C5.34 26.34 4.68 25.68 4 25 C3.01 25 2.02 25 1 25 C1.33 24.34 1.66 23.68 2 23 C0.35 23 -1.3 23 -3 23 C-3.02726927 20.64575325 -3.04696719 18.29183038 -3.0625 15.9375 C-3.07990234 13.97103516 -3.07990234 13.97103516 -3.09765625 11.96484375 C-3.00502359 8.20395786 -2.74686737 4.68736405 -2 1 C-1.34 0.67 -0.68 0.34 0 0 Z " fill="#40749E" transform="translate(551,203)"/>
<path d="M0 0 C-1.40217278 3.3220709 -2.96310018 4.95662308 -5.8125 7.125 C-12.48457974 12.77992058 -15.51221871 20.49169093 -17 29 C-17.21103155 32.00802131 -17.1928908 34.98669314 -17.125 38 C-17.11597656 38.77472656 -17.10695313 39.54945313 -17.09765625 40.34765625 C-17.07439388 42.23190843 -17.0385364 44.11599832 -17 46 C-17.99 45.67 -18.98 45.34 -20 45 C-20.19148936 25.65957447 -20.19148936 25.65957447 -19 16 C-18.34 16 -17.68 16 -17 16 C-17 15.01 -17 14.02 -17 13 C-16.34 12.34 -15.68 11.68 -15 11 C-14.34 11.33 -13.68 11.66 -13 12 C-13.33 10.68 -13.66 9.36 -14 8 C-13.38125 7.71125 -12.7625 7.4225 -12.125 7.125 C-9.86674235 6.06279958 -9.86674235 6.06279958 -8 4 C-7.34 4.33 -6.68 4.66 -6 5 C-6 3.68 -6 2.36 -6 1 C-3.92446352 0.4465236 -2.15634036 0 0 0 Z " fill="#4D89C7" transform="translate(117,224)"/>
<path d="M0 0 C4.5714698 -0.09943798 9.14229975 -0.17173349 13.71459961 -0.21972656 C15.26744565 -0.2397487 16.82021719 -0.26697517 18.37280273 -0.30175781 C20.61460832 -0.3506961 22.85541093 -0.37306168 25.09765625 -0.390625 C25.78336197 -0.41127014 26.46906769 -0.43191528 27.17555237 -0.45318604 C32.61586693 -0.45567582 35.62459892 1.00485711 40 4 C44.09226095 12.18452191 40.57477185 25.9078599 38 34 C37.34 33.34 36.68 32.68 36 32 C36.375 28.875 36.375 28.875 37 26 C37.66 26 38.32 26 39 26 C38.96970703 25.43490723 38.93941406 24.86981445 38.90820312 24.28759766 C38.77158838 21.73342735 38.6357844 19.17921457 38.5 16.625 C38.45230469 15.73554688 38.40460938 14.84609375 38.35546875 13.9296875 C38.31035156 13.07890625 38.26523437 12.228125 38.21875 11.3515625 C38.17685547 10.56604004 38.13496094 9.78051758 38.09179688 8.97119141 C38.03020205 7.64854076 38 6.32408408 38 5 C36.35 5 34.7 5 33 5 C33 4.34 33 3.68 33 3 C22.11 2.67 11.22 2.34 0 2 C0 1.34 0 0.68 0 0 Z " fill="#5484A9" transform="translate(364,181)"/>
<path d="M0 0 C0.66 0 1.32 0 2 0 C2 0.99 2 1.98 2 3 C2.66 3 3.32 3 4 3 C3.81824219 3.89138672 3.81824219 3.89138672 3.6328125 4.80078125 C3.46523438 5.62964844 3.29765625 6.45851562 3.125 7.3125 C2.8465625 8.67568359 2.8465625 8.67568359 2.5625 10.06640625 C2.19083168 12.0047598 1.8566871 13.95072755 1.5625 15.90234375 C0.70385499 21.49120279 -0.16252486 25.61431412 -4 30 C-12.57539146 36.02319162 -24.97075807 34.13352541 -35 34 C-35.33 34.66 -35.66 35.32 -36 36 C-36 34.68 -36 33.36 -36 32 C-21.645 31.01 -21.645 31.01 -7 30 C-7 29.01 -7 28.02 -7 27 C-6.01 27 -5.02 27 -4 27 C-1.39099399 20.35441866 -0.3856646 14.11484687 0 7 C-0.33 7 -0.66 7 -1 7 C-0.67 4.69 -0.34 2.38 0 0 Z " fill="#558DAD" transform="translate(341,201)"/>
<path d="M0 0 C0.33 0 0.66 0 1 0 C0.88964039 3.39647413 0.75912556 6.79188789 0.625 10.1875 C0.5940625 11.14720703 0.563125 12.10691406 0.53125 13.09570312 C0.49257813 14.02705078 0.45390625 14.95839844 0.4140625 15.91796875 C0.3826416 16.77156982 0.3512207 17.6251709 0.31884766 18.50463867 C-0.03349578 21.26214422 -0.87071247 23.46999969 -2 26 C-1.34 26 -0.68 26 0 26 C0.144375 26.9075 0.28875 27.815 0.4375 28.75 C0.86409473 31.21476956 1.35074221 33.58847107 2 36 C2.804375 36.144375 3.60875 36.28875 4.4375 36.4375 C7 37 7 37 8 38 C10.01594582 38.23427778 12.038474 38.41336124 14.0625 38.5625 C15.16722656 38.64628906 16.27195312 38.73007813 17.41015625 38.81640625 C18.26480469 38.87699219 19.11945312 38.93757813 20 39 C20 39.33 20 39.66 20 40 C12.33546291 41.19647333 6.3321086 41.90462774 -0.3203125 37.4453125 C-2.71228412 35.38710436 -3.50015521 34.14188155 -4 31 C-4.27443695 23.88574971 -3.36577306 17.40940236 -2 10.4375 C-1.80921875 9.42880859 -1.6184375 8.42011719 -1.421875 7.38085938 C-0.95518789 4.91908485 -0.48111337 2.45898836 0 0 Z " fill="#467AA8" transform="translate(533,194)"/>
<path d="M0 0 C0.66 0.33 1.32 0.66 2 1 C1.67 16.51 1.34 32.02 1 48 C1.99 48 2.98 48 4 48 C4.33 47.01 4.66 46.02 5 45 C5.99 45 6.98 45 8 45 C7 48 7 48 4.0625 49.6875 C1 51 1 51 -1 51 C-1.02526787 43.89755001 -1.04283201 36.79511152 -1.05493164 29.69262695 C-1.05997349 27.27432828 -1.06680678 24.85603267 -1.07543945 22.43774414 C-1.08751157 18.97020717 -1.09322963 15.50271034 -1.09765625 12.03515625 C-1.10281754 10.94662857 -1.10797882 9.85810089 -1.11329651 8.73658752 C-1.11337204 7.73562546 -1.11344757 6.73466339 -1.11352539 5.70336914 C-1.115746 4.81734512 -1.11796661 3.93132111 -1.12025452 3.01844788 C-1 1 -1 1 0 0 Z " fill="#85AFDF" transform="translate(15,123)"/>
<path d="M0 0 C2.47923801 -0.02685095 4.9581884 -0.04676547 7.4375 -0.0625 C8.14455078 -0.07087891 8.85160156 -0.07925781 9.58007812 -0.08789062 C11.38693559 -0.09653588 13.19387603 -0.05220011 15 0 C17.19359813 2.19359813 16.24712661 7.53736192 16.25756836 10.58129883 C16.19352641 15.80792951 15.34559832 20.26432785 13.734375 25.25 C12.35636818 30.41019574 12.2857924 35.68426141 12 41 C17.28 41.33 22.56 41.66 28 42 C28 42.33 28 42.66 28 43 C22.06 43 16.12 43 10 43 C9.11249938 39.44999752 8.93412068 38.12960009 9.48828125 34.734375 C9.68260742 33.52201172 9.68260742 33.52201172 9.88085938 32.28515625 C10.09452148 31.03025391 10.09452148 31.03025391 10.3125 29.75 C10.44333984 28.92886719 10.57417969 28.10773438 10.70898438 27.26171875 C11.34807871 23.3654045 12.08221875 19.55083282 13.09765625 15.734375 C13.8879306 12.46380237 14.21768711 9.83673611 14.125 6.5 C14.08375 5.015 14.0425 3.53 14 2 C7.07 1.505 7.07 1.505 0 1 C0 0.67 0 0.34 0 0 Z " fill="#6B99B5" transform="translate(492,192)"/>
<path d="M0 0 C2.64 0.66 5.28 1.32 8 2 C8 13.88 8 25.76 8 38 C3.63011144 37.12602229 0.8091218 36.16427375 -3 34 C-3.33 33.34 -3.66 32.68 -4 32 C-2.02 32 -0.04 32 2 32 C1.67 32.99 1.34 33.98 1 35 C2.65 35 4.3 35 6 35 C5.67 24.77 5.34 14.54 5 4 C2.525 3.01 2.525 3.01 0 2 C0 1.34 0 0.68 0 0 Z " fill="#7FABD6" transform="translate(128,300)"/>
<path d="M0 0 C0.66 0.99 1.32 1.98 2 3 C-0.46820985 5.98783297 -2.2147905 6.43848548 -6 7 C-8.99706464 7.25792741 -11.99553479 7.41804024 -15 7.5625 C-15.83781006 7.6035083 -16.67562012 7.6445166 -17.53881836 7.68676758 C-33.58946566 8.42870103 -33.58946566 8.42870103 -38 8 C-38.66 7.34 -39.32 6.68 -40 6 C-35.71 6 -31.42 6 -27 6 C-26.67 5.34 -26.34 4.68 -26 4 C-18.08 4 -10.16 4 -2 4 C-2 3.01 -2 2.02 -2 1 C-1.34 0.67 -0.68 0.34 0 0 Z " fill="#5A8CAE" transform="translate(395,227)"/>
<path d="M0 0 C0.86147141 -0.00960754 1.72294281 -0.01921509 2.61051941 -0.02911377 C4.01821342 -0.03548859 4.01821342 -0.03548859 5.4543457 -0.04199219 C6.41532669 -0.04769226 7.37630768 -0.05339233 8.3664093 -0.05926514 C10.40669651 -0.06873374 12.44699913 -0.07525646 14.48730469 -0.07910156 C17.59964059 -0.08877246 20.71130658 -0.11976393 23.82348633 -0.15136719 C25.80460219 -0.15790046 27.78572279 -0.16314966 29.7668457 -0.16699219 C31.15935799 -0.18551239 31.15935799 -0.18551239 32.58000183 -0.20440674 C37.81604395 -0.18649372 41.37207231 0.30070101 45.94262695 3.16113281 C44.25512695 3.78613281 44.25512695 3.78613281 41.94262695 4.16113281 C40.91262573 3.68377686 40.91262573 3.68377686 39.86181641 3.19677734 C35.83655721 1.76873105 32.16084494 1.91294227 27.9230957 1.96582031 C26.63523918 1.97006516 26.63523918 1.97006516 25.32136536 1.97439575 C22.5908082 1.98555211 19.86058425 2.01064822 17.13012695 2.03613281 C15.27401191 2.04616849 13.41789171 2.05529332 11.56176758 2.06347656 C7.0219265 2.08547656 2.48233314 2.119975 -2.05737305 2.16113281 C-2.17854492 2.94359375 -2.2997168 3.72605469 -2.42456055 4.53222656 C-2.59213867 5.54414063 -2.7597168 6.55605469 -2.93237305 7.59863281 C-3.17600586 9.11263672 -3.17600586 9.11263672 -3.42456055 10.65722656 C-3.63338867 11.48351562 -3.8422168 12.30980469 -4.05737305 13.16113281 C-5.04737305 13.65613281 -5.04737305 13.65613281 -6.05737305 14.16113281 C-5.91707886 12.01493021 -5.76999141 9.86917063 -5.61987305 7.72363281 C-5.53866211 6.52867187 -5.45745117 5.33371094 -5.3737793 4.10253906 C-4.90432234 -0.26167191 -4.03850939 0.0362191 0 0 Z " fill="#7399B9" transform="translate(299.057373046875,180.8388671875)"/>
<path d="M0 0 C0.33 0 0.66 0 1 0 C0.88509088 2.68826864 0.75836801 5.37513469 0.625 8.0625 C0.5940625 8.81466797 0.563125 9.56683594 0.53125 10.34179688 C0.49257813 11.08623047 0.45390625 11.83066406 0.4140625 12.59765625 C0.3826416 13.27320557 0.3512207 13.94875488 0.31884766 14.64477539 C-0.11216242 17.82850756 -1.11738296 20.91084035 -2 24 C3.28 24 8.56 24 14 24 C14.33 23.01 14.66 22.02 15 21 C15.66 21 16.32 21 17 21 C16.67 22.65 16.34 24.3 16 26 C12.87517438 26.08687496 9.75065754 26.14034568 6.625 26.1875 C5.73554687 26.21263672 4.84609375 26.23777344 3.9296875 26.26367188 C2.65351562 26.27817383 2.65351562 26.27817383 1.3515625 26.29296875 C0.17327881 26.31653442 0.17327881 26.31653442 -1.02880859 26.34057617 C-1.67930176 26.22818604 -2.32979492 26.1157959 -3 26 C-5 23 -5 23 -4.609375 20.72265625 C-4.32578125 19.84480469 -4.0421875 18.96695313 -3.75 18.0625 C-1.95733795 12.10289462 -0.91211602 6.14873508 0 0 Z " fill="#6493B1" transform="translate(626,209)"/>
<path d="M0 0 C2.67927341 4.01891012 2.15601248 6.24161923 2 11 C4.31 11 6.62 11 9 11 C9.33 10.34 9.66 9.68 10 9 C12.375 7.8125 12.375 7.8125 15 7 C15.99 7.33 16.98 7.66 18 8 C17.34 8 16.68 8 16 8 C15.67 8.99 15.34 9.98 15 11 C12.3828125 12.82421875 12.3828125 12.82421875 9.125 14.6875 C8.05507812 15.31011719 6.98515625 15.93273437 5.8828125 16.57421875 C3 18 3 18 0 18 C0 12.06 0 6.12 0 0 Z " fill="#327DCE" transform="translate(222,272)"/>
<path d="M0 0 C0.33 0 0.66 0 1 0 C1.06941369 9.87458265 1.12276721 19.74910756 1.15543652 29.6238842 C1.17111366 34.20881625 1.19238906 38.79358178 1.22631836 43.37841797 C1.25883911 47.80043303 1.27683757 52.22228761 1.28463173 56.64441299 C1.29018839 58.3341843 1.30103878 60.0239465 1.31719017 61.71364975 C1.33886814 64.07475738 1.34197105 66.4351961 1.34057617 68.79638672 C1.351362 69.49985229 1.36214783 70.20331787 1.3732605 70.92810059 C1.36076355 72.87423706 1.36076355 72.87423706 1 76 C-0.485 76.99 -0.485 76.99 -2 78 C-2.33 77.01 -2.66 76.02 -3 75 C-2.01 75 -1.02 75 0 75 C0 50.25 0 25.5 0 0 Z " fill="#75A3D6" transform="translate(263,191)"/>
<path d="M0 0 C0.66 0.33 1.32 0.66 2 1 C2 1.99 2 2.98 2 4 C0.02 4 -1.96 4 -4 4 C-4.103125 4.639375 -4.20625 5.27875 -4.3125 5.9375 C-4.539375 6.618125 -4.76625 7.29875 -5 8 C-5.99 8.33 -6.98 8.66 -8 9 C-8.33 9.66 -8.66 10.32 -9 11 C-10.155 11.474375 -11.31 11.94875 -12.5 12.4375 C-13.655 12.953125 -14.81 13.46875 -16 14 C-16.33 14.99 -16.66 15.98 -17 17 C-17.99 16.67 -18.98 16.34 -20 16 C-19.67 15.34 -19.34 14.68 -19 14 C-20.32 13.67 -21.64 13.34 -23 13 C-22.42894531 12.731875 -21.85789062 12.46375 -21.26953125 12.1875 C-14.75742596 9.040155 -8.74597133 5.40599556 -2.6875 1.4765625 C-1.800625 0.98929687 -0.91375 0.50203125 0 0 Z " fill="#4E8BD2" transform="translate(111,67)"/>
<path d="M0 0 C3.465 1.98 3.465 1.98 7 4 C7 4.66 7 5.32 7 6 C8.0209375 6.0928125 8.0209375 6.0928125 9.0625 6.1875 C13.03178937 7.28538855 15.78639555 9.49023975 19 12 C15.57186835 13.14271055 14.69088901 12.82699932 11.375 11.6875 C10.18003906 11.29111328 10.18003906 11.29111328 8.9609375 10.88671875 C7 10 7 10 6 8 C5.01 9.485 5.01 9.485 4 11 C2.68 10.34 1.36 9.68 0 9 C0 8.01 0 7.02 0 6 C0.66 6 1.32 6 2 6 C1.34 4.02 0.68 2.04 0 0 Z " fill="#538ED2" transform="translate(144,53)"/>
<path d="M0 0 C6.27 0 12.54 0 19 0 C19 0.33 19 0.66 19 1 C16.37583048 1.36164523 13.75099687 1.71461153 11.125 2.0625 C10.37863281 2.16626953 9.63226563 2.27003906 8.86328125 2.37695312 C3.2265625 3.11328125 3.2265625 3.11328125 1 2 C1.01160156 2.71027344 1.02320313 3.42054688 1.03515625 4.15234375 C1.04869141 5.53099609 1.04869141 5.53099609 1.0625 6.9375 C1.07410156 7.85402344 1.08570313 8.77054688 1.09765625 9.71484375 C1 12 1 12 0 13 C-0.2165625 14.7325 -0.2165625 14.7325 -0.4375 16.5 C-0.623125 17.655 -0.80875 18.81 -1 20 C-1.66 20.33 -2.32 20.66 -3 21 C-3.3773664 13.45267196 -2.01064758 7.28859748 0 0 Z " fill="#5587AC" transform="translate(420,148)"/>
<path d="M0 0 C0.33 0 0.66 0 1 0 C0.75600335 13.64163079 -2.13568764 26.70422499 -5 40 C-5.33 40 -5.66 40 -6 40 C-6.11269443 33.8894576 -5.89604368 28.04829486 -5 22 C-4.34 22 -3.68 22 -3 22 C-3.33 18.7 -3.66 15.4 -4 12 C-3.01 11.67 -2.02 11.34 -1 11 C-1.020625 9.9275 -1.04125 8.855 -1.0625 7.75 C-1.0142016 4.85209576 -0.86844115 2.71387859 0 0 Z " fill="#6594B9" transform="translate(588,184)"/>
<path d="M0 0 C0.33 0 0.66 0 1 0 C0.86149295 3.45866792 0.71295273 6.91683275 0.5625 10.375 C0.50352539 11.85226563 0.50352539 11.85226563 0.44335938 13.359375 C0.40146484 14.30039063 0.35957031 15.24140625 0.31640625 16.2109375 C0.27974854 17.08024902 0.24309082 17.94956055 0.20532227 18.84521484 C0 21 0 21 -1 23 C-1.23235944 25.26765601 -1.38101703 27.53361414 -1.5234375 29.80859375 C-2.08682547 32.39925484 -2.99145857 33.32979577 -5 35 C-4.25499739 23.19759029 -3.19786776 11.42095629 0 0 Z " fill="#5686AD" transform="translate(291,202)"/>
<path d="M0 0 C0.33 0 0.66 0 1 0 C0.93941406 0.70382813 0.87882812 1.40765625 0.81640625 2.1328125 C0.14167844 10.08422018 -0.44276487 18.0394982 -1 26 C4.28 26 9.56 26 15 26 C15 26.33 15 26.66 15 27 C12.02077407 27.02683987 9.04178705 27.04676037 6.0625 27.0625 C4.78729492 27.07506836 4.78729492 27.07506836 3.48632812 27.08789062 C2.67744141 27.09111328 1.86855469 27.09433594 1.03515625 27.09765625 C0.2862915 27.10289307 -0.46257324 27.10812988 -1.23413086 27.11352539 C-3 27 -3 27 -4 26 C-3.94879707 17.02668602 -2.50190002 8.59143025 0 0 Z " fill="#78A4BB" transform="translate(409,208)"/>
<path d="M0 0 C0.33 0 0.66 0 1 0 C0.67 2.31 0.34 4.62 0 7 C0.66 7 1.32 7 2 7 C2 7.66 2 8.32 2 9 C1.34 9 0.68 9 0 9 C0 9.99 0 10.98 0 12 C4.62 11.67 9.24 11.34 14 11 C14 10.34 14 9.68 14 9 C15.32 8.67 16.64 8.34 18 8 C17.67 9.98 17.34 11.96 17 14 C14.20826945 14.02690104 11.41679652 14.04679053 8.625 14.0625 C7.43390625 14.07506836 7.43390625 14.07506836 6.21875 14.08789062 C0.2265625 14.11328125 0.2265625 14.11328125 -2 13 C-1.85769192 11.58297487 -1.71099254 10.1663904 -1.5625 8.75 C-1.48128906 7.96109375 -1.40007813 7.1721875 -1.31640625 6.359375 C-1.02365007 4.17635361 -0.57935581 2.1226818 0 0 Z " fill="#6997B6" transform="translate(589,221)"/>
<path d="M0 0 C0 0.99 0 1.98 0 3 C0.66 3 1.32 3 2 3 C2 3.99 2 4.98 2 6 C2.5775 6.061875 3.155 6.12375 3.75 6.1875 C6.88690987 7.32027301 8.09167504 9.34197595 10 12 C3.83643195 10.3341708 -1.48259656 7.12194714 -7 4 C-6.67 3.01 -6.34 2.02 -6 1 C-4 0 -4 0 0 0 Z " fill="#518FD8" transform="translate(75,298)"/>
<path d="M0 0 C0.33 0 0.66 0 1 0 C0.57039141 7.42185877 -0.34195028 14.72446673 -1.5 22.0625 C-1.63059814 22.89563721 -1.76119629 23.72877441 -1.89575195 24.5871582 C-2.42336148 27.85205542 -2.95114568 30.85343705 -4 34 C-4.66 34 -5.32 34 -6 34 C-5.64958688 29.4169653 -5.3098146 25.04562427 -4 20.625 C-2.82070059 16.35003965 -2.573173 12.28358018 -2.34375 7.8671875 C-1.99236497 4.93631694 -1.21581424 2.67675232 0 0 Z " fill="#5B89B0" transform="translate(431,191)"/>
<path d="M0 0 C0 4.62 0 9.24 0 14 C1.65 14.33 3.3 14.66 5 15 C5 15.33 5 15.66 5 16 C2.66705225 16.04241723 0.33297433 16.04092937 -2 16 C-3 15 -3 15 -3.125 11.625 C-3 8 -3 8 -2 5 C-2.66 5 -3.32 5 -4 5 C-4.33 5.99 -4.66 6.98 -5 8 C-5.103125 7.360625 -5.20625 6.72125 -5.3125 6.0625 C-5.539375 5.381875 -5.76625 4.70125 -6 4 C-6.99 3.67 -7.98 3.34 -9 3 C-8.01 2.67 -7.02 2.34 -6 2 C-6 1.34 -6 0.68 -6 0 C-4 -1 -4 -1 0 0 Z " fill="#6F9FBF" transform="translate(565,219)"/>
<path d="M0 0 C-1.41972809 3.36909568 -3.09040037 5.116407 -5.9375 7.375 C-9.35936769 10.25036251 -11.34804657 12.76686933 -13 17 C-14.32 15.35 -15.64 13.7 -17 12 C-16.34 11.67 -15.68 11.34 -15 11 C-14.34 11.33 -13.68 11.66 -13 12 C-13.33 10.68 -13.66 9.36 -14 8 C-13.38125 7.71125 -12.7625 7.4225 -12.125 7.125 C-9.86674235 6.06279958 -9.86674235 6.06279958 -8 4 C-7.34 4.33 -6.68 4.66 -6 5 C-6 3.68 -6 2.36 -6 1 C-3.92446352 0.4465236 -2.15634036 0 0 0 Z " fill="#4C8CCE" transform="translate(117,224)"/>
<path d="M0 0 C0.99 0.495 0.99 0.495 2 1 C3.37342831 1.0689472 4.75002102 1.08467708 6.125 1.0625 C7.40375 1.041875 8.6825 1.02125 10 1 C9.67 2.65 9.34 4.3 9 6 C8.34 6 7.68 6 7 6 C6.67 7.32 6.34 8.64 6 10 C5.01 10 4.02 10 3 10 C3 9.34 3 8.68 3 8 C2.34 7.67 1.68 7.34 1 7 C0 4 0 4 0 0 Z " fill="#12629A" transform="translate(597,182)"/>
<path d="M0 0 C0.66 0 1.32 0 2 0 C2 0.99 2 1.98 2 3 C2.66 3 3.32 3 4 3 C3.87882812 3.59425781 3.75765625 4.18851563 3.6328125 4.80078125 C3.46523438 5.62964844 3.29765625 6.45851562 3.125 7.3125 C2.84849609 8.67181641 2.84849609 8.67181641 2.56640625 10.05859375 C2.1879349 12.02403464 1.84164449 13.99593839 1.52734375 15.97265625 C1.37394531 16.93042969 1.22054688 17.88820312 1.0625 18.875 C0.92972656 19.75929687 0.79695313 20.64359375 0.66015625 21.5546875 C-0.07405549 24.27431206 -1.18433722 25.87265669 -3 28 C-2.50903352 23.58130164 -1.86799917 19.33430717 -0.875 15 C0.11302376 10.32671974 -0.24642633 6.68890284 -1 2 C-0.67 1.34 -0.34 0.68 0 0 Z " fill="#457EAC" transform="translate(341,201)"/>
<path d="M0 0 C0.33 0.99 0.66 1.98 1 3 C-1.54642509 6.11229733 -4.25510724 6.77883932 -8 8 C-8.33 8.66 -8.66 9.32 -9 10 C-11.62581138 11.57548683 -12.87099787 12 -16 12 C-13.62714183 5.35599714 -5.95274348 2.84039537 0 0 Z " fill="#6196CD" transform="translate(123,187)"/>
<path d="M0 0 C0.99 0.33 1.98 0.66 3 1 C3 1.66 3 2.32 3 3 C2.21625 3.20625 1.4325 3.4125 0.625 3.625 C-2.30916286 4.80676612 -2.30916286 4.80676612 -3.3125 8.125 C-3.539375 9.07375 -3.76625 10.0225 -4 11 C-4.99 11 -5.98 11 -7 11 C-6.98839844 11.61488281 -6.97679687 12.22976562 -6.96484375 12.86328125 C-6.95582031 13.67152344 -6.94679688 14.47976562 -6.9375 15.3125 C-6.92589844 16.11300781 -6.91429687 16.91351563 -6.90234375 17.73828125 C-7 20 -7 20 -8 23 C-8.66 23 -9.32 23 -10 23 C-9.65985614 14.7004897 -8.22016659 8.05497009 -2.25 2 C-1.5075 1.34 -0.765 0.68 0 0 Z " fill="#477CA6" transform="translate(360,182)"/>
<path d="M0 0 C0.33 0 0.66 0 1 0 C1.14505175 3.43705705 1.23398014 6.87333033 1.3125 10.3125 C1.35439453 11.28896484 1.39628906 12.26542969 1.43945312 13.27148438 C1.48512444 15.92955497 1.45633263 18.38063337 1 21 C-1.73873671 23.82049004 -3.45332938 23.951934 -7.33203125 24.29296875 C-8.48058594 24.25816406 -9.62914062 24.22335938 -10.8125 24.1875 C-12.55466797 24.14689453 -12.55466797 24.14689453 -14.33203125 24.10546875 C-15.21246094 24.07066406 -16.09289062 24.03585938 -17 24 C-17 23.67 -17 23.34 -17 23 C-15.73542969 22.94392578 -15.73542969 22.94392578 -14.4453125 22.88671875 C-12.80175781 22.78810547 -12.80175781 22.78810547 -11.125 22.6875 C-10.03445313 22.62949219 -8.94390625 22.57148438 -7.8203125 22.51171875 C-6.88960938 22.34285156 -5.95890625 22.17398438 -5 22 C-3.05917559 19.08876338 -2.63927064 17.87506021 -2.1484375 14.55078125 C-2.01953125 13.70322266 -1.890625 12.85566406 -1.7578125 11.98242188 C-1.63148438 11.10134766 -1.50515625 10.22027344 -1.375 9.3125 C-1.2409375 8.41982422 -1.106875 7.52714844 -0.96875 6.60742188 C-0.63910373 4.40585573 -0.31646086 2.20349353 0 0 Z " fill="#6395B4" transform="translate(325,200)"/>
<path d="M0 0 C2.97 0.495 2.97 0.495 6 1 C6 1.66 6 2.32 6 3 C7.3303125 3.4021875 7.3303125 3.4021875 8.6875 3.8125 C11.76877548 4.91710819 14.26221405 6.22849144 17 8 C15.68 8.33 14.36 8.66 13 9 C13 8.34 13 7.68 13 7 C11.9275 6.855625 10.855 6.71125 9.75 6.5625 C7.08337051 6.16250558 4.58600271 5.72408076 2 5 C2 7.31 2 9.62 2 12 C1.67 12 1.34 12 1 12 C0.97310784 10.52093108 0.95365379 9.04172517 0.9375 7.5625 C0.92589844 6.73878906 0.91429687 5.91507813 0.90234375 5.06640625 C1 3 1 3 2 2 C1.34 1.34 0.68 0.68 0 0 Z " fill="#5591CF" transform="translate(222,160)"/>
<path d="M0 0 C0 0.66 0 1.32 0 2 C-0.804375 2.391875 -1.60875 2.78375 -2.4375 3.1875 C-10.0670325 6.97417756 -10.0670325 6.97417756 -17.1484375 11.65625 C-19 13 -19 13 -21 13 C-21 11.68 -21 10.36 -21 9 C-19.02 8.67 -17.04 8.34 -15 8 C-15 7.34 -15 6.68 -15 6 C-11.535 5.505 -11.535 5.505 -8 5 C-7.67 4.01 -7.34 3.02 -7 2 C-4.56723614 0.81480735 -2.71982714 0 0 0 Z " fill="#6694CF" transform="translate(57,149)"/>
<path d="M0 0 C0.33 0 0.66 0 1 0 C0.86149295 3.45866792 0.71295273 6.91683275 0.5625 10.375 C0.50352539 11.85226563 0.50352539 11.85226563 0.44335938 13.359375 C0.40146484 14.30039063 0.35957031 15.24140625 0.31640625 16.2109375 C0.27974854 17.08024902 0.24309082 17.94956055 0.20532227 18.84521484 C0 21 0 21 -1 23 C-1.66 23 -2.32 23 -3 23 C-3.33 23.99 -3.66 24.98 -4 26 C-2.07289294 8.14350797 -2.07289294 8.14350797 0 0 Z " fill="#6998B9" transform="translate(533,194)"/>
<path d="M0 0 C0.33 0 0.66 0 1 0 C1.22162857 2.77035709 1.42779249 5.54038995 1.625 8.3125 C1.68945312 9.09818359 1.75390625 9.88386719 1.8203125 10.69335938 C1.871875 11.45068359 1.9234375 12.20800781 1.9765625 12.98828125 C2.02893066 13.68477783 2.08129883 14.38127441 2.13525391 15.09887695 C2 17 2 17 0 20 C-0.68177416 21.32567199 -1.35191436 22.65753688 -2 24 C-3.14385985 18.2958512 -2.70482833 13.73525387 -1.5625 8.0625 C-1.41490234 7.28326172 -1.26730469 6.50402344 -1.11523438 5.70117188 C-0.75344516 3.79886084 -0.37811758 1.89913291 0 0 Z " fill="#5C93BA" transform="translate(414,177)"/>
<path d="M0 0 C0.66 0.33 1.32 0.66 2 1 C-0.25928153 4.95374267 -3.13883927 6.22783901 -7.16015625 7.97265625 C-9.32985698 9.00074777 -9.32985698 9.00074777 -11 12 C-12.32 11.67 -13.64 11.34 -15 11 C-15 10.34 -15 9.68 -15 9 C-12.98828125 7.59765625 -12.98828125 7.59765625 -10.3125 6.0625 C-9.44238281 5.55847656 -8.57226562 5.05445312 -7.67578125 4.53515625 C-6.79277344 4.02855469 -5.90976563 3.52195312 -5 3 C-4.10667969 2.42121094 -3.21335937 1.84242187 -2.29296875 1.24609375 C-1.15794922 0.62927734 -1.15794922 0.62927734 0 0 Z " fill="#649ED3" transform="translate(75,88)"/>
<path d="M0 0 C0.33 0 0.66 0 1 0 C1.26953125 13.4765625 1.26953125 13.4765625 -1.5625 16.875 C-2.2740625 17.431875 -2.2740625 17.431875 -3 18 C-3.66 17.67 -4.32 17.34 -5 17 C-4.67 13.04 -4.34 9.08 -4 5 C-3.34 5.33 -2.68 5.66 -2 6 C-1.34 4.02 -0.68 2.04 0 0 Z " fill="#165F94" transform="translate(525,190)"/>
<path d="M0 0 C0.66 0.33 1.32 0.66 2 1 C2.125 7.625 2.125 7.625 1 11 C-4.28 11 -9.56 11 -15 11 C-13.68 10.67 -12.36 10.34 -11 10 C-11 9.34 -11 8.68 -11 8 C-7.37 8.33 -3.74 8.66 0 9 C0 8.071875 0 7.14375 0 6.1875 C0 4.125 0 2.0625 0 0 Z " fill="#4B7EA7" transform="translate(580,223)"/>
<path d="M0 0 C0.66 0.33 1.32 0.66 2 1 C-0.90987161 5.14097114 -3.4609418 6.86942166 -8 9 C-9.69859667 10.29241051 -11.37609523 11.61490475 -13 13 C-13 12.34 -13 11.68 -13 11 C-13.99 10.67 -14.98 10.34 -16 10 C-12.06337249 7.50509841 -8.12213502 5.04091437 -4.0625 2.75 C-1.21104209 1.29874789 -1.21104209 1.29874789 0 0 Z " fill="#6CA1D5" transform="translate(102,199)"/>
<path d="M0 0 C1.32 0.66 2.64 1.32 4 2 C4 2.99 4 3.98 4 5 C2.56705502 5.84114171 1.12845595 6.67265687 -0.3125 7.5 C-1.51326172 8.19609375 -1.51326172 8.19609375 -2.73828125 8.90625 C-5 10 -5 10 -8 10 C-7.67 8.02 -7.34 6.04 -7 4 C-4.69 4.33 -2.38 4.66 0 5 C0 3.35 0 1.7 0 0 Z " fill="#6D9DD0" transform="translate(177,74)"/>
<path d="M0 0 C0.33 0 0.66 0 1 0 C1.22197585 2.10277123 1.42713637 4.20732302 1.625 6.3125 C1.74101563 7.48425781 1.85703125 8.65601563 1.9765625 9.86328125 C2 13 2 13 0 16 C-0.39013716 17.9896995 -0.73202649 19.99019869 -1 22 C-1.33 22 -1.66 22 -2 22 C-2.144375 20.906875 -2.28875 19.81375 -2.4375 18.6875 C-2.88288104 15.06877013 -2.88288104 15.06877013 -4 12 C-3.34 11.67 -2.68 11.34 -2 11 C-1.30906104 8.42048126 -1.30906104 8.42048126 -0.875 5.4375 C-0.70742188 4.42558594 -0.53984375 3.41367188 -0.3671875 2.37109375 C-0.24601563 1.58863281 -0.12484375 0.80617187 0 0 Z " fill="#39719D" transform="translate(567,205)"/>
<path d="M0 0 C1.32 0 2.64 0 4 0 C3.85795259 1.58367747 3.71119847 3.16693318 3.5625 4.75 C3.48128906 5.63171875 3.40007812 6.5134375 3.31640625 7.421875 C3.03761535 9.69350452 2.61209423 11.79851823 2 14 C3.65 14 5.3 14 7 14 C7 14.33 7 14.66 7 15 C5.02 15 3.04 15 1 15 C0.15901344 10.98195309 -0.05404945 7.98196457 1 4 C0.34 4 -0.32 4 -1 4 C-0.67 2.68 -0.34 1.36 0 0 Z " fill="#37719D" transform="translate(306,210)"/>
<path d="M0 0 C0.66 0.33 1.32 0.66 2 1 C2 11.23 2 21.46 2 32 C0.35 32 -1.3 32 -3 32 C-2.505 30.515 -2.505 30.515 -2 29 C-1.01 29 -0.02 29 1 29 C0.67 19.43 0.34 9.86 0 0 Z " fill="#3B7FCE" transform="translate(132,303)"/>
<path d="M0 0 C0.33 0 0.66 0 1 0 C2.01622308 5.18273772 2.04723881 6.88190297 0 12 C5.61 12.33 11.22 12.66 17 13 C17 13.33 17 13.66 17 14 C14.02077407 14.02683987 11.04178705 14.04676037 8.0625 14.0625 C6.78729492 14.07506836 6.78729492 14.07506836 5.48632812 14.08789062 C4.67744141 14.09111328 3.86855469 14.09433594 3.03515625 14.09765625 C2.2862915 14.10289307 1.53742676 14.10812988 0.76586914 14.11352539 C-1 14 -1 14 -2 13 C-1.9140625 11.07421875 -1.9140625 11.07421875 -1.625 8.6875 C-1.53476562 7.90761719 -1.44453125 7.12773437 -1.3515625 6.32421875 C-1.02512033 4.16607328 -0.56860512 2.10576641 0 0 Z " fill="#7CB0C3" transform="translate(433,221)"/>
<path d="M0 0 C0.33 0.99 0.66 1.98 1 3 C-0.8125 6.1875 -0.8125 6.1875 -3 9 C-3.66 9 -4.32 9 -5 9 C-5 8.01 -5 7.02 -5 6 C-7.31 6.33 -9.62 6.66 -12 7 C-8.18765077 3.6497537 -4.66714289 1.83025211 0 0 Z " fill="#317ED5" transform="translate(80,214)"/>
<path d="M0 0 C0.33 0 0.66 0 1 0 C1 3.96 1 7.92 1 12 C1.66 11.67 2.32 11.34 3 11 C3.625 12.875 3.625 12.875 4 15 C3.34 15.66 2.68 16.32 2 17 C1.35232207 19.57061311 1.35232207 19.57061311 1 22 C0.34 21.67 -0.32 21.34 -1 21 C-1.18451025 6.21867882 -1.18451025 6.21867882 0 0 Z " fill="#417DAB" transform="translate(435,206)"/>
<path d="M0 0 C1.93911286 2.90866929 3.45187119 5.80640948 5 8.9375 C5.515625 9.97777344 6.03125 11.01804687 6.5625 12.08984375 C7.036875 13.05019531 7.51125 14.01054687 8 15 C8.66579048 16.33377107 9.33204912 17.66730955 10 19 C9.34 19.33 8.68 19.66 8 20 C4.74850232 15.72171358 2.41167747 12.26170694 1 7 C0.67 7 0.34 7 0 7 C0 4.69 0 2.38 0 0 Z " fill="#5F95CC" transform="translate(100,270)"/>
<path d="M0 0 C0.73798828 0.03351563 1.47597656 0.06703125 2.23632812 0.1015625 C2.98591797 0.11960938 3.73550781 0.13765625 4.5078125 0.15625 C6.35536523 0.20332141 8.20225971 0.27506484 10.04882812 0.3515625 C9.71882812 1.3415625 9.38882813 2.3315625 9.04882812 3.3515625 C9.04882812 2.6915625 9.04882812 2.0315625 9.04882812 1.3515625 C2.61382813 1.8465625 2.61382813 1.8465625 -3.95117188 2.3515625 C-4.94117188 5.3215625 -5.93117188 8.2915625 -6.95117188 11.3515625 C-8.95117188 9.3515625 -8.95117188 9.3515625 -9.26367188 6.9765625 C-8.54843496 0.96857243 -5.82283428 -0.10539067 0 0 Z " fill="#6C96B7" transform="translate(559.951171875,191.6484375)"/>
<path d="M0 0 C-0.96355353 14.78132118 -0.96355353 14.78132118 -2 21 C-2.33 21 -2.66 21 -3 21 C-3.99120602 14.28182584 -4.37720457 7.70638746 -3 1 C-1 0 -1 0 0 0 Z " fill="#4F87AE" transform="translate(438,154)"/>
<path d="M0 0 C0.66 0 1.32 0 2 0 C2 0.66 2 1.32 2 2 C2.928125 1.95875 3.85625 1.9175 4.8125 1.875 C8 2 8 2 11 4 C11 4.66 11 5.32 11 6 C11.66 6.33 12.32 6.66 13 7 C12.05125 6.814375 11.1025 6.62875 10.125 6.4375 C7.10131207 5.71313368 7.10131207 5.71313368 5 7 C2.375 6.0625 2.375 6.0625 0 5 C0 3.35 0 1.7 0 0 Z " fill="#3C81CD" transform="translate(233,167)"/>
<path d="M0 0 C0.33 0 0.66 0 1 0 C1 4.95 1 9.9 1 15 C2.32 15 3.64 15 5 15 C5 14.34 5 13.68 5 13 C6.32 13.33 7.64 13.66 9 14 C3.375 18 3.375 18 0 18 C0 12.06 0 6.12 0 0 Z " fill="#5C8ABD" transform="translate(222,272)"/>
<path d="M0 0 C0.33 0 0.66 0 1 0 C1.33 3.63 1.66 7.26 2 11 C1.34 11 0.68 11 0 11 C-0.33 13.64 -0.66 16.28 -1 19 C-1.66 19 -2.32 19 -3 19 C-2.27637073 12.60794144 -1.19656638 6.31972924 0 0 Z " fill="#658FB6" transform="translate(285,237)"/>
<path d="M0 0 C1.95803507 -0.05389087 3.91648909 -0.09274217 5.875 -0.125 C7.51082031 -0.15980469 7.51082031 -0.15980469 9.1796875 -0.1953125 C12 0 12 0 14 2 C8.06 2.495 8.06 2.495 2 3 C1.67 4.32 1.34 5.64 1 7 C0.34 7 -0.32 7 -1 7 C-0.67 4.69 -0.34 2.38 0 0 Z " fill="#3E75A2" transform="translate(440,181)"/>
<path d="M0 0 C0.66 0 1.32 0 2 0 C2.2361959 6.40353322 1.823321 11.84629161 0 18 C-0.33 18 -0.66 18 -1 18 C-1.11269443 11.8894576 -0.89604368 6.04829486 0 0 Z " fill="#4D80AB" transform="translate(583,206)"/>
<path d="M0 0 C2.00720923 0.28674418 4.0085944 0.61866701 6 1 C4.68 1.33 3.36 1.66 2 2 C1.87882812 2.78246094 1.75765625 3.56492188 1.6328125 4.37109375 C1.46523438 5.38300781 1.29765625 6.39492187 1.125 7.4375 C0.88136719 8.95150391 0.88136719 8.95150391 0.6328125 10.49609375 C0.42398437 11.32238281 0.21515625 12.14867187 0 13 C-0.99 13.495 -0.99 13.495 -2 14 C-1.85970581 11.8537974 -1.71261836 9.70803782 -1.5625 7.5625 C-1.48128906 6.36753906 -1.40007812 5.17257813 -1.31640625 3.94140625 C-1 1 -1 1 0 0 Z " fill="#5385A7" transform="translate(295,181)"/>
<path d="M0 0 C0.33 0 0.66 0 1 0 C0.88543872 2.39674267 0.75871281 4.79181218 0.625 7.1875 C0.5940625 7.86103516 0.563125 8.53457031 0.53125 9.22851562 C0.29896078 13.19678975 -0.28387476 16.40729879 -2 20 C-2.66 19.34 -3.32 18.68 -4 18 C-3.85986328 16.12060547 -3.85986328 16.12060547 -3.3203125 13.8671875 C-3.13339844 13.06152344 -2.94648438 12.25585938 -2.75390625 11.42578125 C-2.54636719 10.58402344 -2.33882813 9.74226562 -2.125 8.875 C-1.82529297 7.60076172 -1.82529297 7.60076172 -1.51953125 6.30078125 C-1.02338102 4.19804932 -0.51301116 2.09868201 0 0 Z " fill="#5F8BAE" transform="translate(469,214)"/>
<path d="M0 0 C5.75 0.875 5.75 0.875 8 2 C8 2.66 8 3.32 8 4 C10.97 4.495 10.97 4.495 14 5 C12.328125 6.17578125 12.328125 6.17578125 10 7 C7.421875 5.91796875 7.421875 5.91796875 4.75 4.1875 C3.85796875 3.62417969 2.9659375 3.06085938 2.046875 2.48046875 C1.37140625 1.99191406 0.6959375 1.50335938 0 1 C0 0.67 0 0.34 0 0 Z " fill="#6897D3" transform="translate(108,323)"/>
<path d="M0 0 C0.66 0 1.32 0 2 0 C1.85786703 1.89611434 1.71113093 3.79188394 1.5625 5.6875 C1.48128906 6.74324219 1.40007812 7.79898438 1.31640625 8.88671875 C1.03548319 11.65086297 0.59843148 14.28945741 0 17 C-0.33 17 -0.66 17 -1 17 C-1.02691685 14.54159395 -1.04679802 12.08348118 -1.0625 9.625 C-1.07087891 8.92632812 -1.07925781 8.22765625 -1.08789062 7.5078125 C-1.11328125 2.2265625 -1.11328125 2.2265625 0 0 Z " fill="#5D8BB1" transform="translate(303,240)"/>
<path d="M0 0 C2.97 0.495 2.97 0.495 6 1 C6 2.65 6 4.3 6 6 C3.69 6 1.38 6 -1 6 C-0.67 4.02 -0.34 2.04 0 0 Z " fill="#1B5E91" transform="translate(339,184)"/>
<path d="M0 0 C-0.33 2.97 -0.66 5.94 -1 9 C-1.33 9 -1.66 9 -2 9 C-2 7.35 -2 5.7 -2 4 C-2.7425 4.350625 -3.485 4.70125 -4.25 5.0625 C-7.21122875 6.0720098 -8.12062561 5.87980884 -11 5 C-9.73461631 4.15841464 -8.46246221 3.32700252 -7.1875 2.5 C-6.47980469 2.0359375 -5.77210938 1.571875 -5.04296875 1.09375 C-3 0 -3 0 0 0 Z " fill="#6896CB" transform="translate(135,181)"/>
<path d="M0 0 C0.33 1.32 0.66 2.64 1 4 C-4.40303965 8.67289916 -9.04769059 8.44534366 -16 8 C-16 7.67 -16 7.34 -16 7 C-15.39671875 6.93941406 -14.7934375 6.87882813 -14.171875 6.81640625 C-12.97304688 6.69072266 -12.97304688 6.69072266 -11.75 6.5625 C-10.96109375 6.48128906 -10.1721875 6.40007812 -9.359375 6.31640625 C-7.17635361 6.02365007 -5.1226818 5.57935581 -3 5 C-3 4.01 -3 3.02 -3 2 C-2.01 2 -1.02 2 0 2 C0 1.34 0 0.68 0 0 Z " fill="#6292B2" transform="translate(337,226)"/>
<path d="M0 0 C0.33 0 0.66 0 1 0 C0.51679152 6.2054142 -0.33318124 11.99945246 -2 18 C-2.66 17.34 -3.32 16.68 -4 16 C-3.65428657 10.35334727 -1.90939746 5.29587597 0 0 Z " fill="#6F9CBB" transform="translate(456,199)"/>
<path d="M0 0 C5.61 0.66 11.22 1.32 17 2 C17 2.33 17 2.66 17 3 C14.91814549 3.22262606 12.83439574 3.42757926 10.75 3.625 C9.58984375 3.74101562 8.4296875 3.85703125 7.234375 3.9765625 C4.06127909 3.99955595 2.61682756 3.69705154 0 2 C0 1.34 0 0.68 0 0 Z " fill="#6B93BA" transform="translate(536,231)"/>
<path d="M0 0 C-1.51671964 4.55015893 -5.16891053 6.50057264 -9 9 C-9 7.35 -9 5.7 -9 4 C-8.01 4.33 -7.02 4.66 -6 5 C-6 3.68 -6 2.36 -6 1 C-3.92446352 0.4465236 -2.15634036 0 0 0 Z " fill="#6197CF" transform="translate(117,224)"/>
<path d="M0 0 C2.475 0.99 2.475 0.99 5 2 C1.53252172 4.77398263 -2.06402511 6.95912413 -6 9 C-6.66 8.67 -7.32 8.34 -8 8 C-7.67 7.01 -7.34 6.02 -7 5 C-3.535 4.505 -3.535 4.505 0 4 C0 2.68 0 1.36 0 0 Z " fill="#73A2D5" transform="translate(66,140)"/>
<path d="M0 0 C1.98 0 3.96 0 6 0 C2.81404865 2.63978826 -0.30970546 5.10498388 -4 7 C-4.66 6.67 -5.32 6.34 -6 6 C-5.01 4.35 -4.02 2.7 -3 1 C-2.01 1.33 -1.02 1.66 0 2 C0 1.34 0 0.68 0 0 Z " fill="#629AD2" transform="translate(254,269)"/>
<path d="M0 0 C0.66 0 1.32 0 2 0 C2 0.99 2 1.98 2 3 C2.66 3 3.32 3 4 3 C3.45276317 6.37462715 2.9451 8.08235 1 11 C-0.20272819 8.59454362 -0.10071472 7.05003047 -0.0625 4.375 C-0.05347656 3.55773437 -0.04445313 2.74046875 -0.03515625 1.8984375 C-0.02355469 1.27195313 -0.01195312 0.64546875 0 0 Z " fill="#2D6C9E" transform="translate(292,195)"/>
<path d="M0 0 C-0.33 0.99 -0.66 1.98 -1 3 C-3.31 3 -5.62 3 -8 3 C-8 3.66 -8 4.32 -8 5 C-9.98 5.33 -11.96 5.66 -14 6 C-6.25702247 -0.27808989 -6.25702247 -0.27808989 0 0 Z " fill="#6EA2D4" transform="translate(143,52)"/>
<path d="M0 0 C0.33 0 0.66 0 1 0 C1.71033431 5.52967941 2.30267176 10.49983036 1 16 C-0.89879606 12.70875349 -1.69675394 9.79057581 -2 6 C-1.0625 2.625 -1.0625 2.625 0 0 Z " fill="#508AB7" transform="translate(644,206)"/>
<path d="M0 0 C3.48539917 0.64544429 6.02819057 2.10134397 9 4 C8.67 4.66 8.34 5.32 8 6 C5.03 5.505 5.03 5.505 2 5 C2 4.34 2 3.68 2 3 C1.34 3 0.68 3 0 3 C0 2.01 0 1.02 0 0 Z " fill="#5F96CC" transform="translate(255,178)"/>
<path d="M0 0 C2.32749345 3.49124017 2.50299316 4.89222251 2 9 C0 11.375 0 11.375 -2 13 C-3.45047396 10.09905209 -2.45356803 8.44027404 -1.5625 5.375 C-1.27503906 4.37210937 -0.98757812 3.36921875 -0.69140625 2.3359375 C-0.46324219 1.56507813 -0.23507813 0.79421875 0 0 Z " fill="#A2A1A0" transform="translate(180,263)"/>
<path d="M0 0 C0.33 0 0.66 0 1 0 C1.33266291 6.20970773 0.45029331 10.28264895 -2 16 C-3.44031588 13.11936824 -2.67629179 11.14160799 -2.125 8 C-1.94195312 6.9275 -1.75890625 5.855 -1.5703125 4.75 C-1 2 -1 2 0 0 Z " fill="#6695B4" transform="translate(472,197)"/>
<path d="M0 0 C4.05281712 1.22527029 7.44360764 2.69880494 11 5 C9.68 5.33 8.36 5.66 7 6 C7 5.34 7 4.68 7 4 C4.69 3.67 2.38 3.34 0 3 C0 2.01 0 1.02 0 0 Z " fill="#6797D0" transform="translate(228,163)"/>
<path d="M0 0 C0.66 0.33 1.32 0.66 2 1 C-0.51830747 4.12270126 -1.7261549 4.94523098 -5.75 5.75 C-7.35875 5.87375 -7.35875 5.87375 -9 6 C-6.45368965 3.02930459 -3.57769851 1.5224249 0 0 Z " fill="#729BD4" transform="translate(48,104)"/>
<path d="M0 0 C-0.375 1.9375 -0.375 1.9375 -1 4 C-1.99 4.495 -1.99 4.495 -3 5 C-3.66 4.34 -4.32 3.68 -5 3 C-5.99 3 -6.98 3 -8 3 C-6 0 -6 0 -4 -0.75 C-2 -1 -2 -1 0 0 Z " fill="#3172A3" transform="translate(560,225)"/>
<path d="M0 0 C1.65 0.33 3.3 0.66 5 1 C2.88229834 3.32947183 0.96664412 4.88750845 -2 6 C-2.99 5.67 -3.98 5.34 -5 5 C-4.34 4.01 -3.68 3.02 -3 2 C-2.01 2 -1.02 2 0 2 C0 1.34 0 0.68 0 0 Z " fill="#6C9BD2" transform="translate(90,127)"/>
<path d="M0 0 C0.66 0.33 1.32 0.66 2 1 C2 1.99 2 2.98 2 4 C0.02 4 -1.96 4 -4 4 C-4 4.66 -4 5.32 -4 6 C-5.98 6.33 -7.96 6.66 -10 7 C-6.81404865 4.36021174 -3.69029454 1.89501612 0 0 Z " fill="#779FD7" transform="translate(111,67)"/>
<path d="M0 0 C4.94520214 4.78567949 4.94520214 4.78567949 5.09765625 8.1640625 C5.08605469 8.97617188 5.07445312 9.78828125 5.0625 10.625 C5.05347656 11.44226563 5.04445313 12.25953125 5.03515625 13.1015625 C5.02355469 13.72804687 5.01195312 14.35453125 5 15 C4.67 15 4.34 15 4 15 C4 12.36 4 9.72 4 7 C3.01 6.67 2.02 6.34 1 6 C0.67 4.02 0.34 2.04 0 0 Z " fill="#7DA8C5" transform="translate(522,183)"/>
<path d="M0 0 C0.66 0 1.32 0 2 0 C1.88490339 1.41750563 1.75746342 2.83401169 1.625 4.25 C1.55539062 5.03890625 1.48578125 5.8278125 1.4140625 6.640625 C0.98492887 9.085877 0.21399362 10.84836903 -1 13 C-1.02708567 11.39592672 -1.04643483 9.7917215 -1.0625 8.1875 C-1.07410156 7.29417969 -1.08570313 6.40085938 -1.09765625 5.48046875 C-1 3 -1 3 0 0 Z " fill="#5D88B1" transform="translate(433,175)"/>
<path d="M0 0 C-5.94 3.465 -5.94 3.465 -12 7 C-12.33 6.34 -12.66 5.68 -13 5 C-12.34 5 -11.68 5 -11 5 C-11 4.34 -11 3.68 -11 3 C-10.01 3 -9.02 3 -8 3 C-8 2.34 -8 1.68 -8 1 C-4.59449725 -1.06762667 -4.18836538 -1.04709135 0 0 Z " fill="#7CA7D5" transform="translate(36,163)"/>
<path d="M0 0 C0.33 0.99 0.66 1.98 1 3 C-1 5 -1 5 -4.625 5.125 C-5.73875 5.08375 -6.8525 5.0425 -8 5 C-5.31158141 2.74754119 -3.35358125 1.11786042 0 0 Z " fill="#689AD2" transform="translate(38,110)"/>
<path d="M0 0 C0.99 0.33 1.98 0.66 3 1 C3.99 1 4.98 1 6 1 C4.7260411 3.03833424 3.38938077 5.03852126 2 7 C1.34 7 0.68 7 0 7 C0 4.69 0 2.38 0 0 Z " fill="#939191" transform="translate(144,302)"/>
<path d="M0 0 C0.33 0 0.66 0 1 0 C1.24915939 1.76813112 1.47366632 3.53974982 1.6875 5.3125 C1.81511719 6.29863281 1.94273437 7.28476563 2.07421875 8.30078125 C2 11 2 11 0.51953125 12.85546875 C0.01808594 13.23316406 -0.48335938 13.61085937 -1 14 C-1.02685938 11.85423363 -1.04633088 9.70837355 -1.0625 7.5625 C-1.07410156 6.36753906 -1.08570313 5.17257813 -1.09765625 3.94140625 C-1 1 -1 1 0 0 Z " fill="#205F93" transform="translate(470,212)"/>
<path d="M0 0 C1.32 0 2.64 0 4 0 C3.67 1.65 3.34 3.3 3 5 C1.68 5 0.36 5 -1 5 C-0.67 3.35 -0.34 1.7 0 0 Z " fill="#1B6093" transform="translate(570,193)"/>
<path d="M0 0 C1.65 0 3.3 0 5 0 C2.81482901 2.40575607 0.74080329 3.79535581 -2.1875 5.1875 C-2.90292969 5.53167969 -3.61835937 5.87585938 -4.35546875 6.23046875 C-4.89816406 6.48441406 -5.44085938 6.73835937 -6 7 C-6 6.34 -6 5.68 -6 5 C-5.34 5 -4.68 5 -4 5 C-4 4.34 -4 3.68 -4 3 C-3.01 3 -2.02 3 -1 3 C-0.67 2.01 -0.34 1.02 0 0 Z " fill="#669DCE" transform="translate(77,135)"/>
<path d="M0 0 C0 0.66 0 1.32 0 2 C0.99 2.33 1.98 2.66 3 3 C2.67 3.66 2.34 4.32 2 5 C-0.0625 5.625 -0.0625 5.625 -2 6 C-2.33 5.34 -2.66 4.68 -3 4 C-2.67 3.34 -2.34 2.68 -2 2 C-2.66 1.67 -3.32 1.34 -4 1 C-2 0 -2 0 0 0 Z " fill="#4B8BDD" transform="translate(20,121)"/>
<path d="M0 0 C-3.63 1.98 -7.26 3.96 -11 6 C-10.67 4.68 -10.34 3.36 -10 2 C-3.87234043 -1.29078014 -3.87234043 -1.29078014 0 0 Z " fill="#7DA8D5" transform="translate(112,119)"/>
<path d="M0 0 C0.66 0 1.32 0 2 0 C2.33 1.98 2.66 3.96 3 6 C4.65 6.33 6.3 6.66 8 7 C8 7.33 8 7.66 8 8 C5.66705225 8.04241723 3.33297433 8.04092937 1 8 C0 7 0 7 -0.0625 3.4375 C-0.041875 2.303125 -0.02125 1.16875 0 0 Z " fill="#8AADC3" transform="translate(562,227)"/>
<path d="M0 0 C2 3 2 3 2 5 C2.99 5.33 3.98 5.66 5 6 C4.01 6.33 3.02 6.66 2 7 C1.34 6.67 0.68 6.34 0 6 C0 5.34 0 4.68 0 4 C-0.99 3.67 -1.98 3.34 -3 3 C-3 2.34 -3 1.68 -3 1 C-2.01 0.67 -1.02 0.34 0 0 Z " fill="#4B86AC" transform="translate(351,226)"/>
<path d="M0 0 C0.33 0 0.66 0 1 0 C1 2.64 1 5.28 1 8 C1.66 8 2.32 8 3 8 C2 11 2 11 0 13 C-1.0161692 8.37078475 -0.83796731 4.65537393 0 0 Z " fill="#1C6093" transform="translate(436,207)"/>
<path d="M0 0 C1.41377341 2.63904371 2.37240135 5.07120629 3 8 C2.01 8.495 2.01 8.495 1 9 C0.34 9.99 -0.32 10.98 -1 12 C-1.14285714 3.42857143 -1.14285714 3.42857143 0 0 Z " fill="#36729D" transform="translate(411,197)"/>
<path d="M0 0 C0.33 0.99 0.66 1.98 1 3 C-0.3125 4.5 -0.3125 4.5 -2 6 C-2.99 6 -3.98 6 -5 6 C-4.75 4.125 -4.75 4.125 -4 2 C-1.9375 0.75 -1.9375 0.75 0 0 Z " fill="#4C8CCF" transform="translate(123,187)"/>
<path d="M0 0 C0.66 0.33 1.32 0.66 2 1 C1.67 2.32 1.34 3.64 1 5 C-3.455 5.495 -3.455 5.495 -8 6 C-5.76019711 2.64029566 -4.65777032 2.31304575 -1 1 C-0.67 0.67 -0.34 0.34 0 0 Z " fill="#6FA4D5" transform="translate(28,115)"/>
<path d="M0 0 C1.32 1.32 2.64 2.64 4 4 C3.67 4.99 3.34 5.98 3 7 C1.0625 6.25 1.0625 6.25 -1 5 C-1.75 2.875 -1.75 2.875 -2 1 C-1.34 0.67 -0.68 0.34 0 0 Z " fill="#8F8D8A" transform="translate(171,114)"/>
<path d="M0 0 C-0.66 0 -1.32 0 -2 0 C-2.33 0.99 -2.66 1.98 -3 3 C-6.0625 4.1875 -6.0625 4.1875 -9 5 C-8.8125 3.125 -8.8125 3.125 -8 1 C-4.70594381 -0.82039948 -3.63772813 -1.21257604 0 0 Z " fill="#5088C6" transform="translate(240,280)"/>
<path d="M0 0 C0.33 0 0.66 0 1 0 C1.17835515 4.54805635 0.99785435 7.8794254 -1 12 C-2.0625 10.1875 -2.0625 10.1875 -3 8 C-2.67 7.01 -2.34 6.02 -2 5 C-1.67 5 -1.34 5 -1 5 C-0.67 3.35 -0.34 1.7 0 0 Z " fill="#246499" transform="translate(431,184)"/>
<path d="M0 0 C0.33 0.99 0.66 1.98 1 3 C1.99 3 2.98 3 4 3 C4.33 2.01 4.66 1.02 5 0 C5.99 0 6.98 0 8 0 C7 3 7 3 5.125 4.1875 C3 5 3 5 0 5 C0 3.35 0 1.7 0 0 Z " fill="#5586BC" transform="translate(15,168)"/>
<path d="M0 0 C1.60080151 4.00200378 0.29279692 7.04556236 -1 11 C-1.66 10.34 -2.32 9.68 -3 9 C-2.625 5.875 -2.625 5.875 -2 3 C-1.34 3 -0.68 3 0 3 C0 2.01 0 1.02 0 0 Z " fill="#7AA3C4" transform="translate(403,204)"/>
<path d="M0 0 C0.66 0.33 1.32 0.66 2 1 C-0.97 3.475 -0.97 3.475 -4 6 C-4 5.34 -4 4.68 -4 4 C-4.99 3.67 -5.98 3.34 -7 3 C-4.69631264 1.93347808 -2.35981813 0.93578995 0 0 Z " fill="#538FD1" transform="translate(93,206)"/>
<path d="M0 0 C0 0.66 0 1.32 0 2 C-0.66 2 -1.32 2 -2 2 C-2.33 3.32 -2.66 4.64 -3 6 C-4.65 5.67 -6.3 5.34 -8 5 C-3.22727273 0 -3.22727273 0 0 0 Z " fill="#82B0DE" transform="translate(59,98)"/>
<path d="M0 0 C2.31 0 4.62 0 7 0 C4.64722731 2.72426311 2.37503669 3.8141763 -1 5 C-0.67 3.35 -0.34 1.7 0 0 Z " fill="#5E98D2" transform="translate(149,92)"/>
<path d="M0 0 C-0.33 1.32 -0.66 2.64 -1 4 C-5.75 5.125 -5.75 5.125 -8 4 C-2.25 0 -2.25 0 0 0 Z " fill="#6A95D7" transform="translate(125,60)"/>
<path d="M0 0 C0.66 0.33 1.32 0.66 2 1 C2 1.66 2 2.32 2 3 C2.66 3.33 3.32 3.66 4 4 C3.67 4.66 3.34 5.32 3 6 C1.35 5.67 -0.3 5.34 -2 5 C-2 4.01 -2 3.02 -2 2 C-1.34 2 -0.68 2 0 2 C0 1.34 0 0.68 0 0 Z " fill="#5992D0" transform="translate(111,289)"/>
<path d="M0 0 C0.33 0 0.66 0 1 0 C1.34833144 4.87664009 0.41685712 7.77050005 -2 12 C-4 8.25 -4 8.25 -4 6 C-3.01 5.67 -2.02 5.34 -1 5 C-0.67 3.35 -0.34 1.7 0 0 Z " fill="#6C9ABA" transform="translate(400,217)"/>
<path d="M0 0 C0.99 0.33 1.98 0.66 3 1 C2.01 1.33 1.02 1.66 0 2 C0 2.66 0 3.32 0 4 C-2.31 4.33 -4.62 4.66 -7 5 C-2.25 1.125 -2.25 1.125 0 0 Z " fill="#6F9ED6" transform="translate(75,216)"/>
<path d="M0 0 C0.33 0 0.66 0 1 0 C0.67 2.97 0.34 5.94 0 9 C-2 7 -2 7 -2.25 4.5 C-2 2 -2 2 0 0 Z " fill="#5386AC" transform="translate(553,194)"/>
<path d="M0 0 C0.33 0 0.66 0 1 0 C1.33 3.63 1.66 7.26 2 11 C1.01 11 0.02 11 -1 11 C-0.67 7.37 -0.34 3.74 0 0 Z " fill="#487EAA" transform="translate(285,237)"/>
<path d="M0 0 C2.64 0 5.28 0 8 0 C4.77484237 1.73662334 1.48670834 2.8905928 -2 4 C-1.34 2.68 -0.68 1.36 0 0 Z " fill="#78A8D9" transform="translate(122,220)"/>
<path d="M0 0 C3.0831351 1.19899698 6.06279492 2.47700477 9 4 C8.34 4.66 7.68 5.32 7 6 C7 5.34 7 4.68 7 4 C4.69 3.67 2.38 3.34 0 3 C0 2.01 0 1.02 0 0 Z " fill="#A6A4A1" transform="translate(179,202)"/>
<path d="M0 0 C0.66 0.66 1.32 1.32 2 2 C1.34 4.31 0.68 6.62 0 9 C-1.3950848 6.70221327 -2.07438619 5.5207033 -1.6875 2.8125 C-1 1 -1 1 0 0 Z " fill="#25618E" transform="translate(456,193)"/>
<path d="M0 0 C3.26460973 1.80412643 4.88929795 2.83394693 7 6 C5.35 5.67 3.7 5.34 2 5 C2 4.34 2 3.68 2 3 C1.34 3 0.68 3 0 3 C0 2.01 0 1.02 0 0 Z " fill="#4A7BA1" transform="translate(640,182)"/>
<path d="M0 0 C0 0.99 0 1.98 0 3 C-0.99 3.33 -1.98 3.66 -3 4 C-3.66 4.66 -4.32 5.32 -5 6 C-5.99 5.34 -6.98 4.68 -8 4 C-2.25 0 -2.25 0 0 0 Z " fill="#9B9B99" transform="translate(50,165)"/>
<path d="M0 0 C-1.28965176 1.37562854 -2.62689293 2.70766393 -4 4 C-4.66 4 -5.32 4 -6 4 C-6 2.68 -6 1.36 -6 0 C-3.50907189 -1.24546405 -2.58919267 -0.7767578 0 0 Z " fill="#5184CE" transform="translate(42,158)"/>
<path d="M0 0 C4.51720311 -0.36625971 4.51720311 -0.36625971 6.8125 1.375 C8 3 8 3 8 5 C5.04590299 3.62845496 2.55991624 2.01136276 0 0 Z " fill="#7AA3D4" transform="translate(95,316)"/>
<path d="M0 0 C2.88575819 0.39803561 3.82189513 0.79009069 5.75 3.0625 C6.1625 3.701875 6.575 4.34125 7 5 C4.0625 4.1875 4.0625 4.1875 1 3 C0.67 2.01 0.34 1.02 0 0 Z " fill="#5B93CD" transform="translate(78,305)"/>
<path d="M0 0 C0.33 0.99 0.66 1.98 1 3 C0.67 3.66 0.34 4.32 0 5 C-4 5 -4 5 -6 4 C-4.02 2.68 -2.04 1.36 0 0 Z " fill="#81ABDF" transform="translate(83,211)"/>
<path d="M0 0 C0.33 0.66 0.66 1.32 1 2 C2.65 1.34 4.3 0.68 6 0 C6.33 0.99 6.66 1.98 7 3 C4.36 3.33 1.72 3.66 -1 4 C-1.33 3.01 -1.66 2.02 -2 1 C-1.34 0.67 -0.68 0.34 0 0 Z " fill="#478FDF" transform="translate(106,197)"/>
<path d="M0 0 C1.65 0 3.3 0 5 0 C5 0.99 5 1.98 5 3 C4.34 3 3.68 3 3 3 C2.67 4.32 2.34 5.64 2 7 C2 5.35 2 3.7 2 2 C1.34 2 0.68 2 0 2 C0 1.34 0 0.68 0 0 Z " fill="#3C6F9C" transform="translate(585,181)"/>
<path d="M0 0 C0 0.66 0 1.32 0 2 C-5.75 5 -5.75 5 -8 5 C-7.67 4.01 -7.34 3.02 -7 2 C-4.56723614 0.81480735 -2.71982714 0 0 0 Z " fill="#5988C3" transform="translate(57,149)"/>
<path d="M0 0 C1.32 0 2.64 0 4 0 C4 2.31 4 4.62 4 7 C0 2.25 0 2.25 0 0 Z " fill="#807E7D" transform="translate(260,125)"/>
<path d="M0 0 C0.78375 0.04125 1.5675 0.0825 2.375 0.125 C2.375 0.785 2.375 1.445 2.375 2.125 C0.395 3.115 -1.585 4.105 -3.625 5.125 C-3.955 4.135 -4.285 3.145 -4.625 2.125 C-2.625 0.125 -2.625 0.125 0 0 Z " fill="#588ECD" transform="translate(133.625,102.875)"/>
<path d="M0 0 C0.33 0.66 0.66 1.32 1 2 C1.66 2.33 2.32 2.66 3 3 C2.34 3.66 1.68 4.32 1 5 C-1.125 4.625 -1.125 4.625 -3 4 C-3 3.34 -3 2.68 -3 2 C-2.01 1.34 -1.02 0.68 0 0 Z " fill="#5293D5" transform="translate(63,95)"/>
<path d="M0 0 C0.99 0.495 0.99 0.495 2 1 C4.00800456 0.71887936 6.01014051 0.38932033 8 0 C5.31158141 2.25245881 3.35358125 3.88213958 0 5 C0 3.35 0 1.7 0 0 Z " fill="#749FD9" transform="translate(161,85)"/>
<path d="M0 0 C2.64 0.33 5.28 0.66 8 1 C7.67 1.66 7.34 2.32 7 3 C4.6859378 3.73075648 2.35171131 4.40138258 0 5 C0 3.35 0 1.7 0 0 Z " fill="#357ED2" transform="translate(162,82)"/>
</svg>
