<?xml version="1.0" standalone="no"?>
<!DOCTYPE svg PUBLIC "-//W3C//DTD SVG 20010904//EN"
 "http://www.w3.org/TR/2001/REC-SVG-20010904/DTD/svg10.dtd">
<svg version="1.0" xmlns="http://www.w3.org/2000/svg"
 width="1500.000000pt" height="1500.000000pt" viewBox="0 0 1500.000000 1500.000000"
 preserveAspectRatio="xMidYMid meet">
<metadata>
Created by potrace 1.10, written by Peter Selinger 2001-2011
</metadata>
<g transform="translate(0.000000,1500.000000) scale(0.100000,-0.100000)"
fill="#000000" stroke="none">
<path d="M6425 11994 c-33 -2 -100 -10 -150 -18 -49 -8 -126 -20 -170 -27
-151 -22 -442 -94 -570 -142 -22 -8 -73 -27 -113 -41 -140 -51 -417 -180 -572
-268 -77 -44 -306 -200 -420 -287 -117 -89 -353 -306 -453 -415 -242 -265
-401 -492 -576 -820 -50 -95 -153 -321 -171 -376 -5 -14 -18 -50 -30 -80 -98
-250 -182 -640 -211 -975 -15 -164 -5 -676 14 -780 8 -44 23 -125 32 -180 39
-235 92 -431 190 -703 39 -109 184 -408 257 -532 45 -75 157 -247 213 -326
269 -379 715 -783 1135 -1027 147 -85 530 -267 563 -267 5 0 23 -6 40 -14 107
-47 366 -119 542 -150 50 -9 117 -21 150 -27 33 -6 92 -15 130 -20 39 -4 101
-13 138 -19 84 -14 683 -8 742 8 64 17 154 34 230 43 117 13 215 28 253 38 20
6 100 26 177 46 130 34 171 47 250 80 17 7 41 16 55 20 79 22 418 182 512 242
21 12 40 23 44 23 3 0 29 15 57 33 29 19 75 47 102 62 122 69 403 297 575 466
181 178 397 438 495 596 112 179 166 273 217 376 64 130 135 286 148 327 5 14
18 50 30 80 101 259 186 642 219 995 22 224 8 628 -28 840 -6 33 -18 105 -26
160 -22 141 -99 429 -154 575 -18 47 -36 96 -40 110 -21 63 -181 394 -229 473
-23 37 -42 70 -42 73 0 11 -153 237 -240 354 -210 283 -523 586 -806 780 -282
194 -384 252 -715 403 -41 19 -91 40 -110 45 -19 6 -59 20 -89 32 -198 76
-414 134 -615 165 -60 9 -144 23 -185 31 -56 12 -159 16 -405 19 -181 1 -357
1 -390 -1z m-1156 -1310 c189 -56 294 -115 407 -229 94 -96 153 -192 196 -320
28 -84 30 -101 31 -245 2 -180 -7 -222 -80 -367 -107 -216 -278 -355 -525
-428 -86 -25 -320 -23 -413 4 -268 78 -490 294 -560 546 -9 33 -22 78 -28 100
-7 22 -12 83 -12 135 0 324 189 614 489 750 35 16 84 34 108 40 24 6 57 15 73
20 56 15 254 11 314 -6z m3024 -199 c51 -14 109 -30 129 -35 42 -12 78 -45 78
-71 0 -24 -67 -264 -82 -296 -7 -15 -26 -31 -42 -36 -26 -9 -33 -6 -58 22 -26
29 -28 36 -22 86 8 62 0 68 -46 35 -15 -11 -38 -24 -51 -30 -13 -5 -31 -14
-39 -20 -30 -19 -221 -130 -224 -130 -2 0 -82 -46 -177 -103 -96 -57 -181
-106 -189 -110 -8 -4 -22 -11 -30 -17 -18 -11 -140 -82 -234 -136 -37 -21 -76
-44 -85 -49 -9 -6 -72 -42 -141 -81 -69 -40 -170 -98 -225 -131 -55 -32 -107
-62 -115 -66 -8 -4 -24 -13 -35 -20 -11 -7 -51 -30 -90 -51 -67 -37 -423 -246
-455 -266 -8 -6 -49 -28 -90 -51 -41 -22 -111 -62 -155 -89 -95 -58 -161 -90
-186 -90 -22 0 -59 46 -59 74 0 27 41 67 97 95 35 17 168 95 243 141 8 5 38
21 65 36 28 15 74 42 103 60 29 19 55 34 58 34 3 0 65 35 138 79 72 43 154 91
181 106 197 110 189 105 392 226 73 44 135 79 137 79 4 0 121 66 176 99 8 5
76 44 150 87 74 42 180 104 234 136 54 33 120 71 145 84 25 14 53 29 61 35 58
36 274 159 312 177 25 13 49 30 52 39 8 19 11 16 -46 41 -44 19 -48 24 -48 56
0 39 31 76 62 76 11 0 60 -11 111 -25z m502 -813 c41 -30 40 12 45 -1171 l5
-1126 85 -6 c96 -6 137 -21 195 -72 118 -102 137 -264 48 -396 -27 -40 -65
-69 -153 -118 -36 -20 -113 -65 -173 -100 -59 -34 -110 -63 -114 -63 -3 0 -14
-6 -22 -14 -9 -7 -41 -27 -71 -44 -127 -70 -218 -123 -270 -155 -30 -19 -91
-54 -135 -78 -44 -23 -147 -83 -228 -131 -82 -48 -151 -88 -154 -88 -3 0 -42
-22 -87 -49 -44 -26 -110 -65 -146 -86 l-65 -37 -350 22 c-427 26 -818 47
-1110 60 -121 5 -283 14 -360 19 -294 22 -460 29 -471 20 -6 -5 -14 -42 -18
-82 -8 -87 -38 -138 -106 -176 l-45 -25 -355 3 c-343 2 -356 3 -390 24 -44 27
-54 36 -79 78 -21 34 -21 43 -21 787 l0 752 25 40 c14 22 44 52 67 67 l41 28
353 3 c337 3 355 2 392 -17 45 -23 89 -71 109 -118 16 -39 41 -42 93 -14 19
10 49 21 67 25 17 4 37 14 43 21 8 10 12 89 14 252 1 256 5 275 53 294 16 6
140 9 301 9 158 -1 278 2 284 8 5 5 10 88 11 185 3 244 -30 222 335 222 158 1
293 4 300 9 9 5 12 53 12 180 0 160 2 175 21 200 l20 26 285 0 c178 0 293 4
305 10 18 10 19 23 19 184 0 160 2 175 21 200 l20 26 295 0 294 0 10 26 c6 14
10 98 10 187 0 151 1 162 22 184 l21 23 346 0 c190 0 351 -4 356 -8z"/>
<path d="M4977 10550 c-107 -19 -237 -85 -324 -165 -168 -154 -248 -357 -224
-570 11 -93 55 -216 103 -291 40 -60 162 -185 203 -206 17 -8 48 -25 70 -36
142 -73 298 -91 445 -51 41 11 86 23 100 26 13 3 42 19 64 35 21 15 45 28 52
28 7 0 51 38 97 83 94 93 141 169 183 292 23 68 27 96 27 190 0 93 -5 123 -27
190 -42 123 -90 201 -177 286 -133 131 -260 187 -439 194 -58 2 -127 0 -153
-5z m168 -106 c18 -19 25 -38 25 -65 0 -38 20 -69 44 -69 7 0 34 -18 59 -40
35 -31 50 -55 66 -102 38 -113 22 -168 -51 -168 -36 0 -55 21 -63 72 -13 81
-64 128 -138 128 -56 0 -123 -78 -112 -130 8 -38 44 -65 165 -125 170 -85 220
-145 220 -265 0 -42 -7 -74 -21 -103 -21 -40 -84 -107 -102 -107 -5 0 -22 -9
-38 -21 -24 -17 -29 -28 -29 -60 0 -47 -35 -89 -74 -89 -34 0 -66 43 -66 90 0
39 -18 62 -56 74 -29 9 -82 63 -104 105 -10 20 -21 64 -25 99 -9 75 7 102 61
102 42 0 60 -19 69 -72 10 -61 33 -95 77 -113 53 -21 68 -19 116 12 47 31 68
75 53 114 -14 39 -32 51 -176 122 -110 54 -176 116 -199 186 -19 59 -20 73 -5
120 28 88 68 139 129 164 46 20 60 38 60 79 0 28 7 46 25 63 31 32 60 32 90
-1z"/>
<path d="M8195 9531 c-14 -14 -11 -2369 3 -2383 10 -10 31 -4 217 64 44 16
118 43 165 59 47 16 92 34 100 39 13 8 15 144 18 1106 1 801 -1 1101 -9 1110
-9 11 -61 14 -248 14 -136 0 -241 -4 -246 -9z"/>
<path d="M7546 9104 c-11 -29 -7 -1784 4 -1805 6 -10 17 -19 24 -19 44 0 139
-106 157 -174 4 -17 13 -50 19 -73 7 -28 16 -43 26 -43 17 0 167 49 225 74 20
8 39 22 43 31 3 9 6 462 6 1007 0 723 -3 994 -11 1004 -9 11 -61 14 -249 14
-208 0 -239 -2 -244 -16z"/>
<path d="M6902 8688 c-9 -9 -12 -169 -12 -682 0 -369 4 -677 8 -684 7 -9 64
-12 253 -10 l244 3 0 690 0 690 -240 3 c-179 2 -244 -1 -253 -10z"/>
<path d="M6262 8278 c-9 -9 -12 -112 -12 -439 l0 -428 26 -20 c15 -12 31 -21
37 -21 6 0 31 -13 56 -30 46 -29 47 -29 205 -31 123 -1 161 2 167 13 5 7 9
223 9 479 0 361 -3 469 -12 477 -20 16 -460 16 -476 0z"/>
<path d="M5607 7853 c-4 -3 -7 -86 -7 -184 l0 -177 153 0 c136 1 217 -6 298
-27 50 -13 55 4 53 197 -1 96 -4 180 -8 187 -8 12 -477 17 -489 4z"/>
<path d="M4713 7420 c-249 -4 -285 -7 -303 -22 -20 -18 -20 -27 -20 -727 0
-683 1 -710 19 -732 l19 -24 294 -3 c161 -2 308 0 326 3 63 12 62 -2 62 754 0
406 -4 690 -10 705 -19 51 -32 53 -387 46z"/>
<path d="M5690 7350 c-126 -10 -299 -59 -387 -110 l-53 -30 0 -495 0 -495 23
-10 c21 -8 225 -20 722 -40 116 -5 273 -14 350 -19 205 -16 452 -31 685 -41
113 -5 269 -15 346 -21 l142 -11 98 57 c55 32 128 75 164 95 36 20 121 70 190
110 69 40 159 92 200 115 87 48 192 109 235 136 17 10 37 22 45 26 8 4 35 19
61 33 25 15 65 38 90 52 24 14 102 58 173 99 71 41 153 88 182 104 74 42 114
84 125 134 19 85 -30 165 -117 189 -36 10 -50 9 -130 -17 -81 -27 -112 -38
-169 -62 -11 -5 -74 -27 -140 -50 -143 -48 -323 -112 -495 -173 -69 -24 -141
-50 -160 -57 -19 -6 -44 -16 -55 -20 -11 -5 -48 -18 -83 -29 -34 -10 -82 -33
-106 -49 -79 -55 -94 -56 -678 -56 l-536 0 -26 24 c-32 30 -33 52 -2 88 l24
28 553 3 c614 3 578 -1 624 72 46 73 26 159 -48 212 l-32 23 -563 3 -563 3
-62 37 c-84 50 -121 67 -197 91 -171 53 -267 65 -430 51z"/>
</g>
</svg>
