<?xml version="1.0" standalone="no"?>
<!DOCTYPE svg PUBLIC "-//W3C//DTD SVG 20010904//EN"
 "http://www.w3.org/TR/2001/REC-SVG-20010904/DTD/svg10.dtd">
<svg version="1.0" xmlns="http://www.w3.org/2000/svg"
 width="1500.000000pt" height="1500.000000pt" viewBox="0 0 1500.000000 1500.000000"
 preserveAspectRatio="xMidYMid meet">
<metadata>
Created by potrace 1.10, written by Peter Selinger 2001-2011
</metadata>
<g transform="translate(0.000000,1500.000000) scale(0.100000,-0.100000)"
fill="#000000" stroke="none">
<path d="M6365 11920 c-44 -4 -116 -14 -160 -23 -44 -8 -105 -18 -135 -22
-118 -14 -543 -129 -645 -174 -11 -5 -76 -33 -145 -62 -645 -268 -1149 -657
-1565 -1204 -41 -54 -186 -268 -205 -302 -8 -16 -28 -50 -45 -78 -172 -293
-305 -608 -384 -915 -18 -69 -39 -142 -47 -163 -8 -20 -14 -53 -14 -72 0 -18
-5 -46 -11 -61 -5 -16 -14 -58 -19 -94 -5 -36 -18 -132 -29 -215 -32 -231 -30
-596 4 -845 14 -102 32 -211 40 -242 8 -32 15 -70 15 -84 0 -15 7 -50 15 -78
8 -28 26 -91 40 -141 34 -124 102 -330 127 -390 12 -27 30 -70 40 -95 34 -80
112 -244 139 -290 14 -25 45 -78 69 -119 24 -40 51 -86 59 -101 38 -67 203
-294 312 -430 82 -101 322 -342 444 -445 99 -83 319 -251 370 -282 53 -32 282
-170 309 -185 92 -53 307 -149 476 -213 119 -44 179 -65 205 -71 17 -4 35 -10
40 -14 6 -4 26 -11 45 -15 19 -4 62 -15 96 -25 56 -17 116 -29 409 -81 241
-42 818 -42 1070 2 229 40 380 69 425 84 25 8 79 24 120 36 160 45 384 132
575 225 61 29 121 60 135 68 194 114 374 225 410 252 373 285 632 542 886 879
220 292 432 700 534 1031 17 55 36 119 44 144 8 25 26 99 41 165 14 66 32 147
40 180 8 33 19 107 26 165 6 58 15 137 19 175 12 95 11 547 0 670 -18 185 -37
320 -57 405 -32 131 -44 182 -52 225 -4 22 -15 63 -24 90 -9 28 -30 93 -46
145 -72 229 -162 431 -303 680 -80 142 -72 129 -171 273 -292 422 -616 735
-1070 1035 -374 246 -850 443 -1297 537 -134 28 -323 58 -410 66 -106 9 -637
8 -745 -1z m1955 -1510 c22 -11 47 -20 57 -20 10 0 51 -16 91 -36 56 -28 98
-60 177 -138 90 -88 110 -114 154 -200 28 -54 51 -111 51 -127 0 -15 10 -54
22 -86 31 -81 31 -189 1 -260 -13 -28 -23 -64 -23 -80 0 -15 -9 -43 -20 -61
-11 -18 -20 -41 -20 -51 0 -10 -7 -24 -14 -31 -8 -6 -24 -30 -35 -53 -36 -73
-143 -181 -231 -231 -43 -25 -87 -46 -97 -46 -10 0 -30 -8 -43 -17 -13 -9 -45
-20 -70 -24 -25 -4 -80 -15 -122 -24 -70 -15 -82 -15 -130 -1 -29 8 -78 18
-108 22 -30 3 -68 14 -85 24 -16 10 -43 21 -60 25 -16 3 -48 20 -70 36 -22 17
-62 44 -88 61 -44 28 -127 124 -127 146 0 5 -7 16 -17 23 -9 8 -22 28 -30 44
-7 17 -17 37 -22 45 -28 46 -51 111 -51 146 0 21 -7 72 -15 113 -14 67 -14 81
0 142 8 37 15 85 15 106 0 33 13 70 53 148 6 11 21 40 33 65 20 42 199 230
227 239 7 2 42 21 79 42 36 22 75 39 85 39 10 0 36 9 58 19 33 16 65 20 188
20 129 1 153 -2 187 -19z m-3346 -652 c14 -19 16 -212 16 -1752 0 -1520 2
-1732 15 -1745 13 -14 233 -15 1835 -13 1805 2 1820 2 1840 -18 23 -23 22 -19
20 -200 -1 -123 -3 -137 -22 -153 -19 -16 -126 -17 -2035 -15 -1981 3 -2015 3
-2029 22 -12 17 -14 298 -14 1942 0 1734 2 1924 16 1938 13 13 44 16 179 16
157 0 164 -1 179 -22z m1445 -482 c19 -14 40 -26 46 -26 6 0 24 -14 41 -31 16
-17 54 -43 84 -59 30 -15 63 -37 74 -49 10 -11 37 -30 60 -42 22 -11 52 -31
66 -44 14 -12 41 -31 60 -40 19 -10 53 -33 74 -51 22 -19 46 -34 53 -34 8 0
33 -18 56 -40 23 -23 53 -43 67 -47 14 -3 43 -22 65 -43 22 -21 51 -41 65 -45
14 -4 41 -23 60 -41 19 -19 40 -34 47 -34 6 0 32 -18 57 -39 25 -22 56 -43 68
-46 13 -4 44 -25 70 -46 26 -21 51 -39 56 -39 4 0 41 -24 80 -52 39 -29 90
-66 114 -81 24 -15 81 -55 128 -87 47 -33 89 -60 94 -60 4 0 29 -17 55 -39 25
-21 66 -48 89 -60 43 -22 45 -22 64 -4 11 10 26 30 34 45 21 41 43 58 74 58
25 0 31 -5 40 -39 5 -21 17 -44 25 -51 8 -7 15 -18 15 -24 0 -6 11 -33 25 -61
13 -27 25 -60 25 -71 0 -12 6 -27 14 -33 8 -6 16 -24 19 -39 5 -28 39 -117 63
-164 25 -48 12 -83 -38 -101 -28 -10 -513 10 -535 22 -35 18 -34 38 4 109 21
41 34 76 30 86 -4 9 -23 24 -44 33 -21 9 -51 29 -68 44 -16 15 -50 38 -75 50
-25 13 -49 29 -53 36 -4 7 -29 25 -55 40 -26 15 -65 42 -86 60 -22 18 -45 33
-51 33 -7 0 -32 18 -57 39 -25 22 -56 43 -70 46 -14 4 -40 21 -59 38 -32 30
-59 49 -173 122 -26 17 -72 49 -103 73 -31 23 -62 42 -69 42 -6 0 -36 20 -66
45 -30 25 -60 45 -65 45 -6 0 -31 18 -56 40 -25 22 -52 40 -60 40 -9 0 -39 20
-68 45 -29 25 -58 45 -64 45 -6 0 -32 18 -59 40 -26 22 -55 40 -62 40 -8 0
-33 17 -57 39 -23 21 -60 48 -83 59 -22 11 -47 28 -54 37 -8 9 -36 28 -62 41
-55 28 -107 80 -108 107 0 41 89 180 130 202 28 15 46 8 109 -39z m1569 -605
c2 -142 0 -166 -14 -182 -22 -25 -51 -24 -64 2 -14 24 -19 318 -7 337 6 8 23
12 45 10 l37 -3 3 -164z m166 153 c14 -13 16 -47 16 -219 0 -172 -2 -206 -16
-219 -19 -19 -26 -20 -42 -4 -13 13 -18 439 -5 451 11 12 31 8 47 -9z m204
-176 c2 -181 2 -188 -17 -188 -42 0 -51 34 -51 200 0 164 5 184 45 178 19 -3
20 -11 23 -190z m-2320 -195 c2 -166 1 -183 -15 -191 -10 -5 -127 -9 -261 -8
-189 1 -245 4 -251 15 -5 7 -8 84 -7 171 1 219 -24 201 285 198 l246 -3 3
-182z m772 -143 c12 -7 16 -38 18 -148 3 -119 1 -142 -13 -156 -14 -14 -47
-16 -250 -16 -221 0 -235 1 -245 19 -5 11 -10 77 -10 146 0 69 5 135 10 146
10 18 23 19 243 19 128 0 239 -5 247 -10z m-788 -171 c17 -9 18 -43 18 -504 0
-478 -1 -495 -19 -505 -12 -6 -112 -10 -255 -10 -200 0 -237 2 -250 16 -14 14
-16 69 -15 462 0 246 4 467 7 492 6 36 12 45 32 51 38 10 462 8 482 -2z m798
-289 c15 -24 13 -943 -2 -958 -17 -17 -479 -17 -496 0 -16 16 -17 929 -1 959
10 19 19 20 250 17 200 -3 241 -5 249 -18z m784 -81 c26 -20 27 -23 24 -118
l-3 -96 -252 -3 -252 -2 -17 25 c-26 39 -16 156 16 190 l23 25 217 0 c206 0
219 -1 244 -21z m21 -654 l0 -310 -255 -3 c-231 -2 -256 -1 -267 15 -10 12
-13 91 -13 309 0 270 1 293 18 297 9 3 130 4 267 3 l250 -1 0 -310z m773 252
c21 -22 24 -129 4 -149 -10 -10 -71 -14 -241 -16 -273 -4 -263 -8 -259 102 l3
71 175 6 c252 8 297 6 318 -14z m2 -287 c12 -8 15 -39 15 -182 l0 -173 -30 -6
c-51 -11 -445 -10 -466 1 -18 10 -19 23 -19 178 0 117 4 172 12 180 15 15 465
17 488 2z m-2372 -122 c9 -9 12 -87 12 -289 0 -243 -2 -278 -16 -283 -9 -3
-125 -6 -259 -6 -235 0 -245 1 -255 20 -13 25 -11 526 2 553 8 15 31 17 256
17 180 0 251 -3 260 -12z m793 -239 c14 -22 11 -313 -3 -327 -9 -9 -78 -12
-250 -12 -224 0 -238 1 -248 19 -15 29 -13 293 3 314 16 21 51 24 290 22 160
-1 200 -4 208 -16z m804 -204 l0 -130 -257 -3 c-248 -2 -258 -2 -268 18 -16
29 -10 219 8 236 11 12 60 14 265 12 l252 -3 0 -130z m785 45 c14 -22 12 -154
-2 -168 -9 -9 -79 -12 -254 -12 -211 0 -243 2 -248 16 -11 29 -6 160 6 172 10
10 71 12 251 10 198 -3 239 -5 247 -18z"/>
<path d="M8060 10269 c-30 -10 -65 -19 -78 -19 -33 0 -145 -54 -217 -105 -83
-59 -102 -85 -184 -254 -31 -63 -31 -66 -31 -221 0 -128 3 -160 15 -170 8 -7
15 -18 15 -24 0 -39 135 -246 161 -246 4 0 31 -20 61 -45 30 -25 70 -48 89
-51 19 -4 45 -15 58 -26 21 -16 44 -18 186 -18 147 0 163 2 179 19 10 11 35
23 57 26 21 4 41 11 45 16 3 5 26 20 52 33 79 41 134 109 214 266 l33 64 -1
173 c0 140 -3 176 -16 190 -8 10 -29 48 -47 85 -22 46 -53 87 -102 135 -78 76
-205 152 -257 152 -18 1 -45 7 -60 15 -49 24 -112 26 -172 5z m196 -142 c16
-8 43 -18 60 -21 50 -11 186 -144 223 -218 17 -34 31 -71 31 -82 0 -12 7 -30
15 -40 20 -27 20 -154 0 -180 -8 -11 -15 -31 -15 -45 0 -14 -7 -37 -15 -51 -7
-14 -21 -41 -30 -60 -21 -46 -79 -105 -135 -138 -25 -14 -56 -34 -69 -44 -18
-14 -42 -18 -104 -18 l-80 0 26 28 c15 15 49 50 76 77 93 92 101 109 101 198
l0 79 -62 65 c-75 76 -81 100 -25 95 23 -2 48 3 62 12 21 14 25 25 25 65 0 39
-6 56 -31 87 -17 22 -42 48 -56 60 -14 11 -40 45 -57 75 -26 43 -38 55 -61 57
-34 4 -55 -18 -55 -59 0 -19 -9 -34 -26 -46 -96 -67 -150 -148 -141 -212 6
-49 61 -127 120 -171 46 -34 47 -36 47 -90 l-1 -55 -22 45 c-19 38 -27 45 -55
48 -37 4 -68 -17 -83 -57 -7 -18 -4 -33 16 -67 14 -23 25 -49 25 -57 0 -21 54
-64 90 -72 26 -6 31 -12 36 -46 5 -26 13 -40 27 -45 15 -5 17 -8 6 -15 -8 -5
-21 -7 -29 -4 -8 2 -42 7 -75 10 -99 10 -213 93 -265 193 -14 26 -31 55 -39
64 -34 43 -31 326 4 368 7 8 16 29 19 45 7 32 96 127 160 170 20 14 54 29 74
33 20 5 51 16 67 25 38 21 177 17 221 -6z m-177 -309 c-1 -31 -1 -31 -8 -8 -5
14 -6 28 -4 33 9 15 13 6 12 -25z"/>
</g>
</svg>
